STARTFONT 2.1
COMMENT
COMMENT Converted from OpenType font "MultiTypeGamerChess-Regular.otf" by "otf2bdf 3.0".
COMMENT
FONT -FreeType-MultiType Gamer Chess-Medium-R-Normal--14-100-100-100-P-88-ISO10646-1
SIZE 10 100 100
FONTBOUNDINGBOX 36 24 -12 -4
STARTPROPERTIES 19
FOUNDRY "FreeType"
FAMILY_NAME "MultiType Gamer Chess"
WEIGHT_NAME "Medium"
SLANT "R"
SETWIDTH_NAME "Normal"
ADD_STYLE_NAME ""
PIXEL_SIZE 14
POINT_SIZE 100
RESOLUTION_X 100
RESOLUTION_Y 100
SPACING "P"
AVERAGE_WIDTH 88
CHARSET_REGISTRY "ISO10646"
CHARSET_ENCODING "1"
FONT_ASCENT 15
FONT_DESCENT 1
COPYRIGHT "-FreeType-MultiType Gamer Chess-Medium-R-Normal--14-100-100-100-P-88-ISO10646-1"
_OTF_FONTFILE "MultiTypeGamerChess-Regular.otf"
_OTF_PSNAME "MultiTypeGamer-Chess"
ENDPROPERTIES
CHARS 758
STARTCHAR 0020
ENCODING 32
SWIDTH 288 0
DWIDTH 4 0
BBX 0 0 0 0
BITMAP
ENDCHAR
STARTCHAR 0021
ENCODING 33
SWIDTH 288 0
DWIDTH 4 0
BBX 2 9 1 1
BITMAP
C0
C0
00
00
C0
00
00
C0
C0
ENDCHAR
STARTCHAR 0022
ENCODING 34
SWIDTH 432 0
DWIDTH 6 0
BBX 6 4 0 8
BITMAP
8C
40
40
8C
ENDCHAR
STARTCHAR 0023
ENCODING 35
SWIDTH 864 0
DWIDTH 12 0
BBX 10 13 1 -1
BITMAP
2200
1100
1100
2200
2640
D980
1100
2200
D980
D980
2200
2200
1100
ENDCHAR
STARTCHAR 0024
ENCODING 36
SWIDTH 648 0
DWIDTH 9 0
BBX 8 12 1 -1
BITMAP
18
00
26
D9
C0
00
26
59
02
02
D9
D8
ENDCHAR
STARTCHAR 0025
ENCODING 37
SWIDTH 1296 0
DWIDTH 18 0
BBX 16 10 1 0
BITMAP
2440
D880
C880
0440
242C
5993
0220
0220
0113
0112
ENDCHAR
STARTCHAR 0026
ENCODING 38
SWIDTH 792 0
DWIDTH 11 0
BBX 9 10 1 0
BITMAP
2400
D800
C100
2200
2600
5980
2200
0200
D980
5980
ENDCHAR
STARTCHAR 0027
ENCODING 39
SWIDTH 144 0
DWIDTH 2 0
BBX 2 4 0 8
BITMAP
80
40
40
80
ENDCHAR
STARTCHAR 0028
ENCODING 40
SWIDTH 288 0
DWIDTH 4 0
BBX 4 16 1 -3
BITMAP
70
C0
00
00
C0
C0
00
00
C0
00
00
C0
C0
00
20
50
ENDCHAR
STARTCHAR 0029
ENCODING 41
SWIDTH 288 0
DWIDTH 4 0
BBX 3 16 0 -3
BITMAP
C0
60
00
00
60
60
00
00
60
00
00
60
60
00
80
40
ENDCHAR
STARTCHAR 002A
ENCODING 42
SWIDTH 864 0
DWIDTH 12 0
BBX 10 9 1 3
BITMAP
C880
0440
2440
5980
1900
2600
2440
C880
0440
ENDCHAR
STARTCHAR 002B
ENCODING 43
SWIDTH 648 0
DWIDTH 9 0
BBX 8 8 1 1
BITMAP
18
18
00
26
D9
00
00
18
ENDCHAR
STARTCHAR 002C
ENCODING 44
SWIDTH 144 0
DWIDTH 2 0
BBX 2 3 0 -1
BITMAP
80
80
40
ENDCHAR
STARTCHAR 002D
ENCODING 45
SWIDTH 432 0
DWIDTH 6 0
BBX 7 2 0 4
BITMAP
6C
92
ENDCHAR
STARTCHAR 002E
ENCODING 46
SWIDTH 144 0
DWIDTH 2 0
BBX 1 2 0 0
BITMAP
80
80
ENDCHAR
STARTCHAR 002F
ENCODING 47
SWIDTH 360 0
DWIDTH 5 0
BBX 5 10 0 0
BITMAP
08
10
10
28
20
10
60
60
80
80
ENDCHAR
STARTCHAR 0030
ENCODING 48
SWIDTH 648 0
DWIDTH 9 0
BBX 8 10 1 0
BITMAP
24
58
C1
02
02
C1
02
26
58
18
ENDCHAR
STARTCHAR 0031
ENCODING 49
SWIDTH 360 0
DWIDTH 5 0
BBX 4 10 1 0
BITMAP
20
D0
50
20
20
50
20
20
50
50
ENDCHAR
STARTCHAR 0032
ENCODING 50
SWIDTH 648 0
DWIDTH 9 0
BBX 8 10 1 0
BITMAP
26
D9
C1
06
04
18
20
20
D9
D9
ENDCHAR
STARTCHAR 0033
ENCODING 51
SWIDTH 648 0
DWIDTH 9 0
BBX 8 10 1 0
BITMAP
26
D9
C1
06
06
19
02
02
D9
58
ENDCHAR
STARTCHAR 0034
ENCODING 52
SWIDTH 648 0
DWIDTH 9 0
BBX 8 10 1 0
BITMAP
04
18
58
24
04
D9
26
04
08
08
ENDCHAR
STARTCHAR 0035
ENCODING 53
SWIDTH 648 0
DWIDTH 9 0
BBX 8 10 1 0
BITMAP
26
D9
C0
00
26
D9
02
02
D9
D8
ENDCHAR
STARTCHAR 0036
ENCODING 54
SWIDTH 648 0
DWIDTH 9 0
BBX 8 10 1 0
BITMAP
26
59
C0
00
26
D9
02
02
D9
58
ENDCHAR
STARTCHAR 0037
ENCODING 55
SWIDTH 648 0
DWIDTH 9 0
BBX 8 10 1 0
BITMAP
26
D9
01
06
04
18
20
20
50
50
ENDCHAR
STARTCHAR 0038
ENCODING 56
SWIDTH 648 0
DWIDTH 9 0
BBX 8 10 1 0
BITMAP
26
D9
C1
26
24
58
26
02
D9
58
ENDCHAR
STARTCHAR 0039
ENCODING 57
SWIDTH 648 0
DWIDTH 9 0
BBX 8 10 1 0
BITMAP
26
D9
C1
02
26
59
02
06
D8
D8
ENDCHAR
STARTCHAR 003A
ENCODING 58
SWIDTH 144 0
DWIDTH 2 0
BBX 2 6 0 2
BITMAP
40
80
00
00
80
80
ENDCHAR
STARTCHAR 003B
ENCODING 59
SWIDTH 144 0
DWIDTH 2 0
BBX 2 7 0 -1
BITMAP
40
80
00
00
80
80
40
ENDCHAR
STARTCHAR 003C
ENCODING 60
SWIDTH 648 0
DWIDTH 9 0
BBX 7 10 0 0
BITMAP
02
0C
28
10
80
60
10
10
0C
04
ENDCHAR
STARTCHAR 003D
ENCODING 61
SWIDTH 648 0
DWIDTH 9 0
BBX 8 7 1 1
BITMAP
D9
26
00
00
00
26
D9
ENDCHAR
STARTCHAR 003E
ENCODING 62
SWIDTH 648 0
DWIDTH 9 0
BBX 7 10 2 0
BITMAP
A0
40
08
10
02
0C
10
30
40
40
ENDCHAR
STARTCHAR 003F
ENCODING 63
SWIDTH 648 0
DWIDTH 9 0
BBX 8 10 1 0
BITMAP
26
D9
C1
02
06
18
00
00
18
18
ENDCHAR
STARTCHAR 0040
ENCODING 64
SWIDTH 1152 0
DWIDTH 16 0
BBX 15 14 1 -1
BITMAP
3FF8
5990
200C
0004
C182
C982
0444
0444
C992
066C
0000
C000
5992
266C
ENDCHAR
STARTCHAR 0041
ENCODING 65
SWIDTH 648 0
DWIDTH 9 0
BBX 8 10 1 0
BITMAP
24
58
C1
02
02
D9
26
02
C1
C1
ENDCHAR
STARTCHAR 0042
ENCODING 66
SWIDTH 648 0
DWIDTH 9 0
BBX 8 10 1 0
BITMAP
26
D9
C1
06
26
D9
02
02
D9
D8
ENDCHAR
STARTCHAR 0043
ENCODING 67
SWIDTH 792 0
DWIDTH 11 0
BBX 9 10 1 0
BITMAP
2600
5900
C180
0000
0000
C000
0000
2200
5900
1800
ENDCHAR
STARTCHAR 0044
ENCODING 68
SWIDTH 792 0
DWIDTH 11 0
BBX 9 10 1 0
BITMAP
2600
D900
C180
0000
0000
C180
0000
0200
D900
D800
ENDCHAR
STARTCHAR 0045
ENCODING 69
SWIDTH 648 0
DWIDTH 9 0
BBX 8 10 1 0
BITMAP
26
59
C0
00
24
D8
00
20
59
19
ENDCHAR
STARTCHAR 0046
ENCODING 70
SWIDTH 648 0
DWIDTH 9 0
BBX 8 10 1 0
BITMAP
26
59
C0
00
24
D8
00
00
C0
C0
ENDCHAR
STARTCHAR 0047
ENCODING 71
SWIDTH 792 0
DWIDTH 11 0
BBX 9 10 1 0
BITMAP
2600
5980
C000
0000
0600
C980
0000
2000
5980
1980
ENDCHAR
STARTCHAR 0048
ENCODING 72
SWIDTH 792 0
DWIDTH 11 0
BBX 9 9 1 1
BITMAP
C180
C180
0000
2600
D980
0000
0000
C180
C180
ENDCHAR
STARTCHAR 0049
ENCODING 73
SWIDTH 432 0
DWIDTH 6 0
BBX 5 10 1 0
BITMAP
20
D8
50
20
20
50
20
20
D8
D8
ENDCHAR
STARTCHAR 004A
ENCODING 74
SWIDTH 576 0
DWIDTH 8 0
BBX 6 10 1 0
BITMAP
24
D8
08
04
04
08
04
04
D8
D0
ENDCHAR
STARTCHAR 004B
ENCODING 75
SWIDTH 648 0
DWIDTH 9 0
BBX 8 10 1 0
BITMAP
02
C1
C8
04
20
D8
04
06
C1
C1
ENDCHAR
STARTCHAR 004C
ENCODING 76
SWIDTH 648 0
DWIDTH 9 0
BBX 8 9 1 1
BITMAP
C0
C0
00
00
C0
00
00
D9
59
ENDCHAR
STARTCHAR 004D
ENCODING 77
SWIDTH 936 0
DWIDTH 13 0
BBX 12 10 1 0
BITMAP
2060
D090
D990
0620
0620
C010
0020
0020
C010
C010
ENDCHAR
STARTCHAR 004E
ENCODING 78
SWIDTH 792 0
DWIDTH 11 0
BBX 9 10 1 0
BITMAP
2000
D180
D980
0400
0600
C180
0200
0000
C180
C180
ENDCHAR
STARTCHAR 004F
ENCODING 79
SWIDTH 792 0
DWIDTH 11 0
BBX 9 10 1 0
BITMAP
2600
5900
C180
0000
0000
C180
0000
2200
5900
1800
ENDCHAR
STARTCHAR 0050
ENCODING 80
SWIDTH 648 0
DWIDTH 9 0
BBX 8 10 1 0
BITMAP
24
D8
C1
02
02
C1
06
24
D8
C0
ENDCHAR
STARTCHAR 0051
ENCODING 81
SWIDTH 792 0
DWIDTH 11 0
BBX 9 11 1 -1
BITMAP
2600
5900
C180
0000
0000
C180
0000
2200
5900
1800
0600
ENDCHAR
STARTCHAR 0052
ENCODING 82
SWIDTH 648 0
DWIDTH 9 0
BBX 8 10 1 0
BITMAP
24
D8
C1
02
02
C1
06
24
D8
C1
ENDCHAR
STARTCHAR 0053
ENCODING 83
SWIDTH 648 0
DWIDTH 9 0
BBX 8 10 1 0
BITMAP
26
D9
C1
00
26
59
02
02
D9
58
ENDCHAR
STARTCHAR 0054
ENCODING 84
SWIDTH 648 0
DWIDTH 9 0
BBX 8 10 1 0
BITMAP
26
D9
18
00
00
18
00
00
18
18
ENDCHAR
STARTCHAR 0055
ENCODING 85
SWIDTH 792 0
DWIDTH 11 0
BBX 9 9 1 1
BITMAP
C180
C180
0000
0000
C180
0000
2200
5900
1800
ENDCHAR
STARTCHAR 0056
ENCODING 86
SWIDTH 648 0
DWIDTH 9 0
BBX 8 10 1 0
BITMAP
02
C1
C1
02
02
C1
02
26
58
18
ENDCHAR
STARTCHAR 0057
ENCODING 87
SWIDTH 1080 0
DWIDTH 15 0
BBX 13 10 1 0
BITMAP
0208
C110
C110
0208
0208
C110
0208
2628
5990
1880
ENDCHAR
STARTCHAR 0058
ENCODING 88
SWIDTH 792 0
DWIDTH 11 0
BBX 9 9 1 1
BITMAP
C180
C180
2200
2600
5900
2200
0000
C180
C180
ENDCHAR
STARTCHAR 0059
ENCODING 89
SWIDTH 648 0
DWIDTH 9 0
BBX 8 10 1 0
BITMAP
02
C1
C1
02
26
58
24
00
18
18
ENDCHAR
STARTCHAR 005A
ENCODING 90
SWIDTH 648 0
DWIDTH 9 0
BBX 8 10 1 0
BITMAP
26
D9
08
04
20
50
20
00
D9
D9
ENDCHAR
STARTCHAR 005B
ENCODING 91
SWIDTH 288 0
DWIDTH 4 0
BBX 4 16 1 -3
BITMAP
F0
D0
00
00
C0
C0
00
00
C0
00
00
C0
C0
00
20
D0
ENDCHAR
STARTCHAR 005C
ENCODING 92
SWIDTH 360 0
DWIDTH 5 0
BBX 5 10 0 0
BITMAP
40
80
00
60
20
10
28
28
10
10
ENDCHAR
STARTCHAR 005D
ENCODING 93
SWIDTH 288 0
DWIDTH 4 0
BBX 4 16 0 -3
BITMAP
F0
90
20
20
10
10
20
20
10
20
20
10
10
20
60
90
ENDCHAR
STARTCHAR 005F
ENCODING 95
SWIDTH 792 0
DWIDTH 11 0
BBX 11 2 0 -1
BITMAP
9320
6CC0
ENDCHAR
STARTCHAR 0060
ENCODING 96
SWIDTH 288 0
DWIDTH 4 0
BBX 5 4 -1 11
BITMAP
C0
20
70
08
ENDCHAR
STARTCHAR 0061
ENCODING 97
SWIDTH 648 0
DWIDTH 9 0
BBX 8 10 1 0
BITMAP
26
D9
C1
02
02
D9
26
02
C1
C1
ENDCHAR
STARTCHAR 0062
ENCODING 98
SWIDTH 648 0
DWIDTH 9 0
BBX 8 10 1 0
BITMAP
26
D9
C1
06
24
D8
06
02
D9
D8
ENDCHAR
STARTCHAR 0063
ENCODING 99
SWIDTH 648 0
DWIDTH 9 0
BBX 8 10 1 0
BITMAP
26
D9
C1
02
00
C0
00
02
D9
58
ENDCHAR
STARTCHAR 0064
ENCODING 100
SWIDTH 648 0
DWIDTH 9 0
BBX 8 10 1 0
BITMAP
26
D9
C1
02
02
C1
02
02
D9
D8
ENDCHAR
STARTCHAR 0065
ENCODING 101
SWIDTH 648 0
DWIDTH 9 0
BBX 8 10 1 0
BITMAP
26
D9
C0
00
24
D8
00
00
D9
59
ENDCHAR
STARTCHAR 0066
ENCODING 102
SWIDTH 648 0
DWIDTH 9 0
BBX 8 10 1 0
BITMAP
26
D9
C0
00
24
D8
00
00
C0
C0
ENDCHAR
STARTCHAR 0067
ENCODING 103
SWIDTH 648 0
DWIDTH 9 0
BBX 8 10 1 0
BITMAP
26
D9
C0
00
06
C9
02
02
D9
58
ENDCHAR
STARTCHAR 0068
ENCODING 104
SWIDTH 648 0
DWIDTH 9 0
BBX 8 10 1 0
BITMAP
02
C1
C1
02
26
D9
02
02
C1
C1
ENDCHAR
STARTCHAR 0069
ENCODING 105
SWIDTH 288 0
DWIDTH 4 0
BBX 2 9 1 1
BITMAP
C0
C0
00
00
C0
00
00
C0
C0
ENDCHAR
STARTCHAR 006A
ENCODING 106
SWIDTH 432 0
DWIDTH 6 0
BBX 5 9 1 1
BITMAP
18
18
00
00
18
00
00
D8
D0
ENDCHAR
STARTCHAR 006B
ENCODING 107
SWIDTH 648 0
DWIDTH 9 0
BBX 8 10 1 0
BITMAP
02
C1
C1
06
24
D8
06
02
C1
C1
ENDCHAR
STARTCHAR 006C
ENCODING 108
SWIDTH 576 0
DWIDTH 8 0
BBX 5 9 1 1
BITMAP
C0
C0
00
00
C0
00
00
D8
58
ENDCHAR
STARTCHAR 006D
ENCODING 109
SWIDTH 864 0
DWIDTH 12 0
BBX 10 10 1 0
BITMAP
2040
D180
D980
0640
0440
C080
0040
0040
C080
C080
ENDCHAR
STARTCHAR 006E
ENCODING 110
SWIDTH 648 0
DWIDTH 9 0
BBX 8 10 1 0
BITMAP
22
D1
D9
06
06
C1
02
02
C1
C1
ENDCHAR
STARTCHAR 006F
ENCODING 111
SWIDTH 648 0
DWIDTH 9 0
BBX 8 10 1 0
BITMAP
26
D9
C1
02
02
C1
02
02
D9
58
ENDCHAR
STARTCHAR 0070
ENCODING 112
SWIDTH 648 0
DWIDTH 9 0
BBX 8 10 1 0
BITMAP
26
D9
C1
02
02
D9
26
00
C0
C0
ENDCHAR
STARTCHAR 0071
ENCODING 113
SWIDTH 648 0
DWIDTH 9 0
BBX 8 11 1 -1
BITMAP
26
D9
C1
02
02
C1
02
02
D9
58
06
ENDCHAR
STARTCHAR 0072
ENCODING 114
SWIDTH 648 0
DWIDTH 9 0
BBX 8 10 1 0
BITMAP
26
D9
C1
02
02
D9
26
06
C1
C1
ENDCHAR
STARTCHAR 0073
ENCODING 115
SWIDTH 648 0
DWIDTH 9 0
BBX 8 10 1 0
BITMAP
26
D9
C1
00
26
59
02
02
D9
58
ENDCHAR
STARTCHAR 0074
ENCODING 116
SWIDTH 648 0
DWIDTH 9 0
BBX 8 10 1 0
BITMAP
26
D9
18
00
00
18
00
00
18
18
ENDCHAR
STARTCHAR 0075
ENCODING 117
SWIDTH 648 0
DWIDTH 9 0
BBX 8 10 1 0
BITMAP
02
C1
C1
02
02
C1
02
02
D9
58
ENDCHAR
STARTCHAR 0076
ENCODING 118
SWIDTH 648 0
DWIDTH 9 0
BBX 8 10 1 0
BITMAP
02
C1
C1
02
02
C1
02
26
58
18
ENDCHAR
STARTCHAR 0077
ENCODING 119
SWIDTH 1080 0
DWIDTH 15 0
BBX 13 10 1 0
BITMAP
0208
C110
C110
0208
0208
C110
0208
0608
D990
5890
ENDCHAR
STARTCHAR 0078
ENCODING 120
SWIDTH 648 0
DWIDTH 9 0
BBX 8 10 1 0
BITMAP
02
C1
C1
26
24
58
26
02
C1
C1
ENDCHAR
STARTCHAR 0079
ENCODING 121
SWIDTH 648 0
DWIDTH 9 0
BBX 8 10 1 0
BITMAP
02
C1
C1
02
02
D9
26
00
18
18
ENDCHAR
STARTCHAR 007A
ENCODING 122
SWIDTH 648 0
DWIDTH 9 0
BBX 8 10 1 0
BITMAP
26
D9
01
02
26
D8
00
00
D9
D9
ENDCHAR
STARTCHAR 007B
ENCODING 123
SWIDTH 360 0
DWIDTH 5 0
BBX 6 16 0 -3
BITMAP
1C
28
10
10
28
28
10
80
60
10
10
28
28
10
10
0C
ENDCHAR
STARTCHAR 007C
ENCODING 124
SWIDTH 288 0
DWIDTH 4 0
BBX 2 12 1 -1
BITMAP
C0
00
00
C0
C0
00
00
C0
00
00
C0
C0
ENDCHAR
STARTCHAR 007D
ENCODING 125
SWIDTH 360 0
DWIDTH 5 0
BBX 5 16 0 -3
BITMAP
C0
60
00
00
60
60
10
10
28
10
00
60
60
00
80
40
ENDCHAR
STARTCHAR 00A1
ENCODING 161
SWIDTH 288 0
DWIDTH 4 0
BBX 2 9 1 1
BITMAP
C0
00
00
00
C0
00
00
C0
C0
ENDCHAR
STARTCHAR 00A2
ENCODING 162
SWIDTH 648 0
DWIDTH 9 0
BBX 8 12 1 -1
BITMAP
18
00
26
D9
C1
02
00
C0
00
02
D9
58
ENDCHAR
STARTCHAR 00A3
ENCODING 163
SWIDTH 648 0
DWIDTH 9 0
BBX 8 12 1 0
BITMAP
18
26
22
51
50
20
24
D8
20
20
D9
D9
ENDCHAR
STARTCHAR 00A4
ENCODING 164
SWIDTH 792 0
DWIDTH 11 0
BBX 9 9 1 3
BITMAP
5000
2000
2600
5980
5100
2200
2600
D900
0200
ENDCHAR
STARTCHAR 00A5
ENCODING 165
SWIDTH 648 0
DWIDTH 9 0
BBX 8 13 1 -1
BITMAP
C3
C1
02
26
58
18
00
26
D9
00
00
D9
D9
ENDCHAR
STARTCHAR 00A6
ENCODING 166
SWIDTH 288 0
DWIDTH 4 0
BBX 2 12 1 -1
BITMAP
C0
00
00
C0
C0
00
00
00
00
00
C0
C0
ENDCHAR
STARTCHAR 00A7
ENCODING 167
SWIDTH 648 0
DWIDTH 9 0
BBX 8 16 1 -3
BITMAP
3F
59
20
00
D8
D8
06
02
C1
22
26
19
01
06
24
D8
ENDCHAR
STARTCHAR 00A8
ENCODING 168
SWIDTH 360 0
DWIDTH 5 0
BBX 5 2 0 11
BITMAP
D8
90
ENDCHAR
STARTCHAR 00AB
ENCODING 171
SWIDTH 792 0
DWIDTH 11 0
BBX 10 8 0 1
BITMAP
0CC0
2880
1300
8200
6400
1300
1100
0CC0
ENDCHAR
STARTCHAR 00AD
ENCODING 173
SWIDTH 432 0
DWIDTH 6 0
BBX 7 2 0 4
BITMAP
6C
92
ENDCHAR
STARTCHAR 00AF
ENCODING 175
SWIDTH 360 0
DWIDTH 5 0
BBX 5 2 0 11
BITMAP
F8
90
ENDCHAR
STARTCHAR 00B0
ENCODING 176
SWIDTH 432 0
DWIDTH 6 0
BBX 7 6 0 6
BITMAP
10
6C
44
82
92
6C
ENDCHAR
STARTCHAR 00B4
ENCODING 180
SWIDTH 288 0
DWIDTH 4 0
BBX 5 4 0 11
BITMAP
10
28
70
80
ENDCHAR
STARTCHAR 00B6
ENCODING 182
SWIDTH 648 0
DWIDTH 9 0
BBX 8 10 1 0
BITMAP
22
D9
D9
22
22
59
02
02
19
19
ENDCHAR
STARTCHAR 00B7
ENCODING 183
SWIDTH 144 0
DWIDTH 2 0
BBX 2 2 0 4
BITMAP
40
80
ENDCHAR
STARTCHAR 00B8
ENCODING 184
SWIDTH 216 0
DWIDTH 3 0
BBX 2 2 0 -2
BITMAP
80
40
ENDCHAR
STARTCHAR 00BB
ENCODING 187
SWIDTH 792 0
DWIDTH 11 0
BBX 9 8 2 1
BITMAP
4C00
4400
3300
1100
0880
3300
A200
4C00
ENDCHAR
STARTCHAR 00BF
ENCODING 191
SWIDTH 648 0
DWIDTH 9 0
BBX 8 9 1 1
BITMAP
18
18
00
20
D0
00
02
D9
58
ENDCHAR
STARTCHAR 00C0
ENCODING 192
SWIDTH 648 0
DWIDTH 9 0
BBX 8 15 1 0
BITMAP
C0
20
70
18
00
24
58
C1
02
02
D9
26
02
C1
C1
ENDCHAR
STARTCHAR 00C1
ENCODING 193
SWIDTH 648 0
DWIDTH 9 0
BBX 8 15 1 0
BITMAP
06
08
1C
20
00
24
58
C1
02
02
D9
26
02
C1
C1
ENDCHAR
STARTCHAR 00C2
ENCODING 194
SWIDTH 648 0
DWIDTH 9 0
BBX 8 15 1 0
BITMAP
18
24
7C
58
00
24
58
C1
02
02
D9
26
02
C1
C1
ENDCHAR
STARTCHAR 00C3
ENCODING 195
SWIDTH 648 0
DWIDTH 9 0
BBX 8 15 1 0
BITMAP
51
22
DF
C8
00
24
58
C1
02
02
D9
26
02
C1
C1
ENDCHAR
STARTCHAR 00C4
ENCODING 196
SWIDTH 648 0
DWIDTH 9 0
BBX 8 13 1 0
BITMAP
7C
58
00
24
58
C1
02
02
D9
26
02
C1
C1
ENDCHAR
STARTCHAR 00C5
ENCODING 197
SWIDTH 648 0
DWIDTH 9 0
BBX 8 17 1 0
BITMAP
58
26
26
40
7E
24
00
24
58
C1
02
02
D9
26
02
C1
C1
ENDCHAR
STARTCHAR 00C6
ENCODING 198
SWIDTH 1080 0
DWIDTH 15 0
BBX 13 10 1 0
BITMAP
2668
5990
C100
0200
0260
D990
2600
0200
C190
C190
ENDCHAR
STARTCHAR 00C7
ENCODING 199
SWIDTH 792 0
DWIDTH 11 0
BBX 9 13 1 -3
BITMAP
2600
5900
C180
0000
0000
C000
0000
2200
5900
1800
0400
0400
1800
ENDCHAR
STARTCHAR 00C8
ENCODING 200
SWIDTH 648 0
DWIDTH 9 0
BBX 8 15 1 0
BITMAP
C0
20
70
18
00
26
59
C0
00
24
D8
00
20
59
19
ENDCHAR
STARTCHAR 00C9
ENCODING 201
SWIDTH 648 0
DWIDTH 9 0
BBX 8 15 1 0
BITMAP
06
08
1C
20
00
26
59
C0
00
24
D8
00
20
59
19
ENDCHAR
STARTCHAR 00CA
ENCODING 202
SWIDTH 648 0
DWIDTH 9 0
BBX 8 15 1 0
BITMAP
18
24
7C
58
00
26
59
C0
00
24
D8
00
20
59
19
ENDCHAR
STARTCHAR 00CB
ENCODING 203
SWIDTH 648 0
DWIDTH 9 0
BBX 8 13 1 0
BITMAP
7C
58
00
26
59
C0
00
24
D8
00
20
59
19
ENDCHAR
STARTCHAR 00CC
ENCODING 204
SWIDTH 432 0
DWIDTH 6 0
BBX 6 15 0 0
BITMAP
40
80
70
28
00
10
6C
28
10
10
28
10
10
6C
6C
ENDCHAR
STARTCHAR 00CD
ENCODING 205
SWIDTH 432 0
DWIDTH 6 0
BBX 6 15 1 0
BITMAP
04
18
70
20
00
20
D8
50
20
20
50
20
20
D8
D8
ENDCHAR
STARTCHAR 00CE
ENCODING 206
SWIDTH 432 0
DWIDTH 6 0
BBX 5 15 1 0
BITMAP
50
20
D8
D8
00
20
D8
50
20
20
50
20
20
D8
D8
ENDCHAR
STARTCHAR 00CF
ENCODING 207
SWIDTH 432 0
DWIDTH 6 0
BBX 5 13 1 0
BITMAP
D8
D8
00
20
D8
50
20
20
50
20
20
D8
D8
ENDCHAR
STARTCHAR 00D0
ENCODING 208
SWIDTH 792 0
DWIDTH 11 0
BBX 11 10 0 0
BITMAP
2C80
1300
1020
2040
6840
9020
2040
20C0
1300
1300
ENDCHAR
STARTCHAR 00D1
ENCODING 209
SWIDTH 792 0
DWIDTH 11 0
BBX 9 15 1 0
BITMAP
2200
5900
6F00
2600
0000
2000
D180
D980
0400
0600
C180
0200
0000
C180
C180
ENDCHAR
STARTCHAR 00D2
ENCODING 210
SWIDTH 792 0
DWIDTH 11 0
BBX 9 15 1 0
BITMAP
2000
5000
3800
0400
0000
2600
5900
C180
0000
0000
C180
0000
2200
5900
1800
ENDCHAR
STARTCHAR 00D3
ENCODING 211
SWIDTH 792 0
DWIDTH 11 0
BBX 9 15 1 0
BITMAP
0100
0600
0C00
1800
0000
2600
5900
C180
0000
0000
C180
0000
2200
5900
1800
ENDCHAR
STARTCHAR 00D4
ENCODING 212
SWIDTH 792 0
DWIDTH 11 0
BBX 9 15 1 0
BITMAP
0400
1800
3600
2600
0000
2600
5900
C180
0000
0000
C180
0000
2200
5900
1800
ENDCHAR
STARTCHAR 00D5
ENCODING 213
SWIDTH 792 0
DWIDTH 11 0
BBX 9 15 1 0
BITMAP
2200
5900
6F00
2600
0000
2600
5900
C180
0000
0000
C180
0000
2200
5900
1800
ENDCHAR
STARTCHAR 00D6
ENCODING 214
SWIDTH 792 0
DWIDTH 11 0
BBX 9 13 1 0
BITMAP
3600
2600
0000
2600
5900
C180
0000
0000
C180
0000
2200
5900
1800
ENDCHAR
STARTCHAR 00D7
ENCODING 215
SWIDTH 648 0
DWIDTH 9 0
BBX 8 9 1 1
BITMAP
02
C1
58
24
24
58
26
02
C1
ENDCHAR
STARTCHAR 00D8
ENCODING 216
SWIDTH 864 0
DWIDTH 12 0
BBX 12 10 0 0
BITMAP
0C80
1300
1020
2040
6CC0
9330
2040
28C0
1300
0300
ENDCHAR
STARTCHAR 00D9
ENCODING 217
SWIDTH 792 0
DWIDTH 11 0
BBX 9 15 1 0
BITMAP
2000
5000
3800
0400
0000
0000
C180
C180
0000
0000
C180
0000
2200
5900
1800
ENDCHAR
STARTCHAR 00DA
ENCODING 218
SWIDTH 792 0
DWIDTH 11 0
BBX 9 15 1 0
BITMAP
0100
0600
0C00
1800
0000
0000
C180
C180
0000
0000
C180
0000
2200
5900
1800
ENDCHAR
STARTCHAR 00DB
ENCODING 219
SWIDTH 792 0
DWIDTH 11 0
BBX 9 15 1 0
BITMAP
0400
1800
3600
2600
0000
0000
C180
C180
0000
0000
C180
0000
2200
5900
1800
ENDCHAR
STARTCHAR 00DC
ENCODING 220
SWIDTH 792 0
DWIDTH 11 0
BBX 9 13 1 0
BITMAP
3600
2600
0000
0000
C180
C180
0000
0000
C180
0000
2200
5900
1800
ENDCHAR
STARTCHAR 00DD
ENCODING 221
SWIDTH 648 0
DWIDTH 9 0
BBX 8 15 1 0
BITMAP
06
08
1C
20
00
02
C1
C1
02
26
58
24
00
18
18
ENDCHAR
STARTCHAR 00DE
ENCODING 222
SWIDTH 648 0
DWIDTH 9 0
BBX 8 9 1 1
BITMAP
D8
D9
02
02
C1
02
26
D8
C0
ENDCHAR
STARTCHAR 00DF
ENCODING 223
SWIDTH 648 0
DWIDTH 9 0
BBX 8 10 1 0
BITMAP
26
D9
C1
06
06
D9
02
02
D9
D8
ENDCHAR
STARTCHAR 00E0
ENCODING 224
SWIDTH 648 0
DWIDTH 9 0
BBX 8 15 1 0
BITMAP
C0
20
70
18
00
26
D9
C1
02
02
D9
26
02
C1
C1
ENDCHAR
STARTCHAR 00E1
ENCODING 225
SWIDTH 648 0
DWIDTH 9 0
BBX 8 15 1 0
BITMAP
06
08
1C
20
00
26
D9
C1
02
02
D9
26
02
C1
C1
ENDCHAR
STARTCHAR 00E2
ENCODING 226
SWIDTH 648 0
DWIDTH 9 0
BBX 8 15 1 0
BITMAP
18
24
7C
58
00
26
D9
C1
02
02
D9
26
02
C1
C1
ENDCHAR
STARTCHAR 00E3
ENCODING 227
SWIDTH 648 0
DWIDTH 9 0
BBX 8 15 1 0
BITMAP
51
22
DF
C8
00
26
D9
C1
02
02
D9
26
02
C1
C1
ENDCHAR
STARTCHAR 00E4
ENCODING 228
SWIDTH 648 0
DWIDTH 9 0
BBX 8 13 1 0
BITMAP
7C
58
00
26
D9
C1
02
02
D9
26
02
C1
C1
ENDCHAR
STARTCHAR 00E5
ENCODING 229
SWIDTH 648 0
DWIDTH 9 0
BBX 8 17 1 0
BITMAP
58
26
26
40
7E
24
00
26
D9
C1
02
02
D9
26
02
C1
C1
ENDCHAR
STARTCHAR 00E6
ENCODING 230
SWIDTH 1080 0
DWIDTH 15 0
BBX 13 10 1 0
BITMAP
2668
D990
C100
0200
0260
D990
2600
0200
C190
C190
ENDCHAR
STARTCHAR 00E7
ENCODING 231
SWIDTH 648 0
DWIDTH 9 0
BBX 8 13 1 -3
BITMAP
26
D9
C1
02
00
C0
00
02
D9
58
00
20
50
ENDCHAR
STARTCHAR 00E8
ENCODING 232
SWIDTH 648 0
DWIDTH 9 0
BBX 8 15 1 0
BITMAP
C0
20
70
18
00
26
D9
C0
00
24
D8
00
00
D9
59
ENDCHAR
STARTCHAR 00E9
ENCODING 233
SWIDTH 648 0
DWIDTH 9 0
BBX 8 15 1 0
BITMAP
06
08
1C
20
00
26
D9
C0
00
24
D8
00
00
D9
59
ENDCHAR
STARTCHAR 00EA
ENCODING 234
SWIDTH 648 0
DWIDTH 9 0
BBX 8 15 1 0
BITMAP
18
24
7C
58
00
26
D9
C0
00
24
D8
00
00
D9
59
ENDCHAR
STARTCHAR 00EB
ENCODING 235
SWIDTH 648 0
DWIDTH 9 0
BBX 8 13 1 0
BITMAP
7C
58
00
26
D9
C0
00
24
D8
00
00
D9
59
ENDCHAR
STARTCHAR 00EC
ENCODING 236
SWIDTH 288 0
DWIDTH 4 0
BBX 5 15 -2 0
BITMAP
80
60
30
18
00
00
18
18
00
00
18
00
00
18
18
ENDCHAR
STARTCHAR 00ED
ENCODING 237
SWIDTH 288 0
DWIDTH 4 0
BBX 5 15 0 0
BITMAP
10
28
70
80
00
00
60
60
00
00
60
00
00
60
60
ENDCHAR
STARTCHAR 00EE
ENCODING 238
SWIDTH 288 0
DWIDTH 4 0
BBX 5 15 0 0
BITMAP
60
90
F8
68
00
00
60
60
00
00
60
00
00
60
60
ENDCHAR
STARTCHAR 00EF
ENCODING 239
SWIDTH 288 0
DWIDTH 4 0
BBX 5 13 0 0
BITMAP
F8
68
00
00
60
60
00
00
60
00
00
60
60
ENDCHAR
STARTCHAR 00F0
ENCODING 240
SWIDTH 720 0
DWIDTH 10 0
BBX 9 10 0 0
BITMAP
2C80
1300
1100
2080
6880
9100
2080
2080
1300
1300
ENDCHAR
STARTCHAR 00F1
ENCODING 241
SWIDTH 648 0
DWIDTH 9 0
BBX 8 15 1 0
BITMAP
51
22
DF
C8
00
22
D1
D9
06
06
C1
02
02
C1
C1
ENDCHAR
STARTCHAR 00F2
ENCODING 242
SWIDTH 648 0
DWIDTH 9 0
BBX 8 15 1 0
BITMAP
C0
20
70
18
00
26
D9
C1
02
02
C1
02
02
D9
58
ENDCHAR
STARTCHAR 00F3
ENCODING 243
SWIDTH 648 0
DWIDTH 9 0
BBX 8 15 1 0
BITMAP
06
08
1C
20
00
26
D9
C1
02
02
C1
02
02
D9
58
ENDCHAR
STARTCHAR 00F4
ENCODING 244
SWIDTH 648 0
DWIDTH 9 0
BBX 8 15 1 0
BITMAP
18
24
7C
58
00
26
D9
C1
02
02
C1
02
02
D9
58
ENDCHAR
STARTCHAR 00F5
ENCODING 245
SWIDTH 648 0
DWIDTH 9 0
BBX 8 15 1 0
BITMAP
51
22
DF
C8
00
26
D9
C1
02
02
C1
02
02
D9
58
ENDCHAR
STARTCHAR 00F6
ENCODING 246
SWIDTH 648 0
DWIDTH 9 0
BBX 8 13 1 0
BITMAP
7C
58
00
26
D9
C1
02
02
C1
02
02
D9
58
ENDCHAR
STARTCHAR 00F7
ENCODING 247
SWIDTH 648 0
DWIDTH 9 0
BBX 8 8 1 1
BITMAP
18
18
00
26
D9
00
00
18
ENDCHAR
STARTCHAR 00F8
ENCODING 248
SWIDTH 792 0
DWIDTH 11 0
BBX 11 10 0 0
BITMAP
2C80
1300
1100
2080
6CC0
9320
2080
2080
1300
1300
ENDCHAR
STARTCHAR 00F9
ENCODING 249
SWIDTH 648 0
DWIDTH 9 0
BBX 8 15 1 0
BITMAP
C0
20
70
18
00
02
C1
C1
02
02
C1
02
02
D9
58
ENDCHAR
STARTCHAR 00FA
ENCODING 250
SWIDTH 648 0
DWIDTH 9 0
BBX 8 15 1 0
BITMAP
06
08
1C
20
00
02
C1
C1
02
02
C1
02
02
D9
58
ENDCHAR
STARTCHAR 00FB
ENCODING 251
SWIDTH 648 0
DWIDTH 9 0
BBX 8 15 1 0
BITMAP
18
24
7C
58
00
02
C1
C1
02
02
C1
02
02
D9
58
ENDCHAR
STARTCHAR 00FC
ENCODING 252
SWIDTH 648 0
DWIDTH 9 0
BBX 8 13 1 0
BITMAP
7C
58
00
02
C1
C1
02
02
C1
02
02
D9
58
ENDCHAR
STARTCHAR 00FD
ENCODING 253
SWIDTH 648 0
DWIDTH 9 0
BBX 8 15 1 0
BITMAP
06
08
1C
20
00
02
C1
C1
02
02
D9
26
00
18
18
ENDCHAR
STARTCHAR 00FE
ENCODING 254
SWIDTH 648 0
DWIDTH 9 0
BBX 8 9 1 1
BITMAP
D8
D9
02
02
C1
02
26
D8
C0
ENDCHAR
STARTCHAR 00FF
ENCODING 255
SWIDTH 648 0
DWIDTH 9 0
BBX 8 13 1 0
BITMAP
7C
58
00
02
C1
C1
02
02
D9
26
00
18
18
ENDCHAR
STARTCHAR 0100
ENCODING 256
SWIDTH 648 0
DWIDTH 9 0
BBX 8 13 1 0
BITMAP
7C
58
00
24
58
C1
02
02
D9
26
02
C1
C1
ENDCHAR
STARTCHAR 0101
ENCODING 257
SWIDTH 648 0
DWIDTH 9 0
BBX 8 13 1 0
BITMAP
7C
58
00
26
D9
C1
02
02
D9
26
02
C1
C1
ENDCHAR
STARTCHAR 0102
ENCODING 258
SWIDTH 648 0
DWIDTH 9 0
BBX 8 15 1 0
BITMAP
26
40
7E
24
00
24
58
C1
02
02
D9
26
02
C1
C1
ENDCHAR
STARTCHAR 0103
ENCODING 259
SWIDTH 648 0
DWIDTH 9 0
BBX 8 15 1 0
BITMAP
26
40
7E
24
00
26
D9
C1
02
02
D9
26
02
C1
C1
ENDCHAR
STARTCHAR 0104
ENCODING 260
SWIDTH 648 0
DWIDTH 9 0
BBX 9 13 1 -3
BITMAP
2400
5800
C100
0200
0200
D900
2600
0200
C100
C100
0200
0200
0180
ENDCHAR
STARTCHAR 0105
ENCODING 261
SWIDTH 648 0
DWIDTH 9 0
BBX 9 13 1 -3
BITMAP
2600
D900
C100
0200
0200
D900
2600
0200
C100
C100
0200
0200
0180
ENDCHAR
STARTCHAR 0106
ENCODING 262
SWIDTH 792 0
DWIDTH 11 0
BBX 9 15 1 0
BITMAP
0100
0600
0C00
1800
0000
2600
5900
C180
0000
0000
C000
0000
2200
5900
1800
ENDCHAR
STARTCHAR 0107
ENCODING 263
SWIDTH 648 0
DWIDTH 9 0
BBX 8 15 1 0
BITMAP
06
08
1C
20
00
26
D9
C1
02
00
C0
00
02
D9
58
ENDCHAR
STARTCHAR 010A
ENCODING 266
SWIDTH 792 0
DWIDTH 11 0
BBX 9 13 1 0
BITMAP
0C00
0400
0000
2600
5900
C180
0000
0000
C000
0000
2200
5900
1800
ENDCHAR
STARTCHAR 010B
ENCODING 267
SWIDTH 648 0
DWIDTH 9 0
BBX 8 13 1 0
BITMAP
18
18
00
26
D9
C1
02
00
C0
00
02
D9
58
ENDCHAR
STARTCHAR 010C
ENCODING 268
SWIDTH 792 0
DWIDTH 11 0
BBX 9 15 1 0
BITMAP
2600
1000
3E00
0400
0000
2600
5900
C180
0000
0000
C000
0000
2200
5900
1800
ENDCHAR
STARTCHAR 010D
ENCODING 269
SWIDTH 648 0
DWIDTH 9 0
BBX 8 15 1 0
BITMAP
58
24
7C
18
00
26
D9
C1
02
00
C0
00
02
D9
58
ENDCHAR
STARTCHAR 010E
ENCODING 270
SWIDTH 792 0
DWIDTH 11 0
BBX 9 15 1 0
BITMAP
2600
1000
3E00
0400
0000
2600
D900
C180
0000
0000
C180
0000
0200
D900
D800
ENDCHAR
STARTCHAR 010F
ENCODING 271
SWIDTH 648 0
DWIDTH 9 0
BBX 8 15 1 0
BITMAP
58
24
7C
18
00
26
D9
C1
02
02
C1
02
02
D9
D8
ENDCHAR
STARTCHAR 0110
ENCODING 272
SWIDTH 792 0
DWIDTH 11 0
BBX 11 10 0 0
BITMAP
2C80
1300
1020
2040
6840
9020
2040
20C0
1300
1300
ENDCHAR
STARTCHAR 0111
ENCODING 273
SWIDTH 720 0
DWIDTH 10 0
BBX 9 10 0 0
BITMAP
2C80
1300
1100
2080
6880
9100
2080
2080
1300
1300
ENDCHAR
STARTCHAR 0112
ENCODING 274
SWIDTH 648 0
DWIDTH 9 0
BBX 8 13 1 0
BITMAP
7C
58
00
26
59
C0
00
24
D8
00
20
59
19
ENDCHAR
STARTCHAR 0113
ENCODING 275
SWIDTH 648 0
DWIDTH 9 0
BBX 8 13 1 0
BITMAP
7C
58
00
26
D9
C0
00
24
D8
00
00
D9
59
ENDCHAR
STARTCHAR 0116
ENCODING 278
SWIDTH 648 0
DWIDTH 9 0
BBX 8 13 1 0
BITMAP
18
18
00
26
59
C0
00
24
D8
00
20
59
19
ENDCHAR
STARTCHAR 0117
ENCODING 279
SWIDTH 648 0
DWIDTH 9 0
BBX 8 13 1 0
BITMAP
18
18
00
26
D9
C0
00
24
D8
00
00
D9
59
ENDCHAR
STARTCHAR 0118
ENCODING 280
SWIDTH 648 0
DWIDTH 9 0
BBX 9 13 1 -3
BITMAP
2600
5900
C000
0000
2400
D800
0000
2000
5900
1900
0200
0200
0180
ENDCHAR
STARTCHAR 0119
ENCODING 281
SWIDTH 648 0
DWIDTH 9 0
BBX 9 13 1 -3
BITMAP
2600
D900
C000
0000
2400
D800
0000
0000
D900
5900
0200
0200
0180
ENDCHAR
STARTCHAR 011A
ENCODING 282
SWIDTH 648 0
DWIDTH 9 0
BBX 8 15 1 0
BITMAP
58
24
7C
18
00
26
59
C0
00
24
D8
00
20
59
19
ENDCHAR
STARTCHAR 011B
ENCODING 283
SWIDTH 648 0
DWIDTH 9 0
BBX 8 15 1 0
BITMAP
58
24
7C
18
00
26
D9
C0
00
24
D8
00
00
D9
59
ENDCHAR
STARTCHAR 011E
ENCODING 286
SWIDTH 792 0
DWIDTH 11 0
BBX 9 15 1 0
BITMAP
5100
2200
7F00
1800
0000
2600
5980
C000
0000
0600
C980
0000
2000
5980
1980
ENDCHAR
STARTCHAR 011F
ENCODING 287
SWIDTH 648 0
DWIDTH 9 0
BBX 8 15 1 0
BITMAP
26
40
7E
24
00
26
D9
C0
00
06
C9
02
02
D9
58
ENDCHAR
STARTCHAR 0120
ENCODING 288
SWIDTH 792 0
DWIDTH 11 0
BBX 9 13 1 0
BITMAP
0C00
0400
0000
2600
5980
C000
0000
0600
C980
0000
2000
5980
1980
ENDCHAR
STARTCHAR 0121
ENCODING 289
SWIDTH 648 0
DWIDTH 9 0
BBX 8 13 1 0
BITMAP
18
18
00
26
D9
C0
00
06
C9
02
02
D9
58
ENDCHAR
STARTCHAR 0122
ENCODING 290
SWIDTH 792 0
DWIDTH 11 0
BBX 9 13 1 -4
BITMAP
2600
5980
C000
0000
0600
C980
0000
2000
5980
1980
0000
0800
0400
ENDCHAR
STARTCHAR 0123
ENCODING 291
SWIDTH 648 0
DWIDTH 9 0
BBX 8 14 1 -4
BITMAP
26
D9
C0
00
06
C9
02
02
D9
58
00
00
18
10
ENDCHAR
STARTCHAR 0126
ENCODING 294
SWIDTH 864 0
DWIDTH 12 0
BBX 12 10 0 0
BITMAP
2040
9330
9330
2040
2CC0
1320
2040
2040
1020
1020
ENDCHAR
STARTCHAR 0127
ENCODING 295
SWIDTH 792 0
DWIDTH 11 0
BBX 11 10 0 0
BITMAP
2080
9320
9320
2080
2C80
1300
2080
2080
1100
1100
ENDCHAR
STARTCHAR 0128
ENCODING 296
SWIDTH 432 0
DWIDTH 6 0
BBX 7 15 0 0
BITMAP
64
92
FE
4C
00
10
6C
28
10
10
28
10
10
6C
6C
ENDCHAR
STARTCHAR 0129
ENCODING 297
SWIDTH 288 0
DWIDTH 4 0
BBX 8 15 -2 0
BITMAP
13
60
DF
8A
00
00
18
18
00
00
18
00
00
18
18
ENDCHAR
STARTCHAR 012A
ENCODING 298
SWIDTH 432 0
DWIDTH 6 0
BBX 5 13 1 0
BITMAP
F8
D8
00
20
D8
50
20
20
50
20
20
D8
D8
ENDCHAR
STARTCHAR 012B
ENCODING 299
SWIDTH 288 0
DWIDTH 4 0
BBX 5 13 0 0
BITMAP
F8
68
00
00
60
60
00
00
60
00
00
60
60
ENDCHAR
STARTCHAR 012E
ENCODING 302
SWIDTH 432 0
DWIDTH 6 0
BBX 6 13 1 -3
BITMAP
20
D8
50
20
20
50
20
20
D8
D8
00
04
08
ENDCHAR
STARTCHAR 012F
ENCODING 303
SWIDTH 288 0
DWIDTH 4 0
BBX 4 12 1 -2
BITMAP
C0
C0
00
00
C0
00
00
C0
C0
00
20
50
ENDCHAR
STARTCHAR 0130
ENCODING 304
SWIDTH 432 0
DWIDTH 6 0
BBX 5 13 1 0
BITMAP
70
50
00
20
D8
50
20
20
50
20
20
D8
D8
ENDCHAR
STARTCHAR 0131
ENCODING 305
SWIDTH 288 0
DWIDTH 4 0
BBX 2 9 1 1
BITMAP
C0
C0
00
00
C0
00
00
C0
C0
ENDCHAR
STARTCHAR 0136
ENCODING 310
SWIDTH 648 0
DWIDTH 9 0
BBX 8 14 1 -4
BITMAP
02
C1
C8
04
20
D8
04
06
C1
C1
00
00
18
10
ENDCHAR
STARTCHAR 0137
ENCODING 311
SWIDTH 648 0
DWIDTH 9 0
BBX 8 14 1 -4
BITMAP
02
C1
C1
06
24
D8
06
02
C1
C1
00
00
18
10
ENDCHAR
STARTCHAR 0139
ENCODING 313
SWIDTH 648 0
DWIDTH 9 0
BBX 9 15 0 0
BITMAP
1000
2800
7000
8000
0000
0000
6000
6000
0000
0000
6000
0000
0000
6C80
2C80
ENDCHAR
STARTCHAR 013A
ENCODING 314
SWIDTH 576 0
DWIDTH 8 0
BBX 6 15 0 0
BITMAP
10
28
70
80
00
00
60
60
00
00
60
00
00
6C
2C
ENDCHAR
STARTCHAR 013B
ENCODING 315
SWIDTH 648 0
DWIDTH 9 0
BBX 8 13 1 -3
BITMAP
C0
C0
00
00
C0
00
00
D9
59
00
00
18
10
ENDCHAR
STARTCHAR 013C
ENCODING 316
SWIDTH 576 0
DWIDTH 8 0
BBX 5 13 1 -3
BITMAP
C0
C0
00
00
C0
00
00
D8
58
00
10
20
20
ENDCHAR
STARTCHAR 013D
ENCODING 317
SWIDTH 648 0
DWIDTH 9 0
BBX 8 10 1 0
BITMAP
02
C1
C0
00
00
C0
00
00
D9
59
ENDCHAR
STARTCHAR 013E
ENCODING 318
SWIDTH 576 0
DWIDTH 8 0
BBX 6 10 1 0
BITMAP
04
C8
C8
00
00
C0
00
00
D8
58
ENDCHAR
STARTCHAR 0141
ENCODING 321
SWIDTH 720 0
DWIDTH 10 0
BBX 8 10 0 0
BITMAP
20
10
10
28
60
90
20
20
13
13
ENDCHAR
STARTCHAR 0142
ENCODING 322
SWIDTH 648 0
DWIDTH 9 0
BBX 8 10 0 0
BITMAP
20
10
10
28
60
90
20
20
13
13
ENDCHAR
STARTCHAR 0143
ENCODING 323
SWIDTH 792 0
DWIDTH 11 0
BBX 9 15 1 0
BITMAP
0100
0600
0C00
1800
0000
2000
D180
D980
0400
0600
C180
0200
0000
C180
C180
ENDCHAR
STARTCHAR 0144
ENCODING 324
SWIDTH 648 0
DWIDTH 9 0
BBX 8 15 1 0
BITMAP
06
08
1C
20
00
22
D1
D9
06
06
C1
02
02
C1
C1
ENDCHAR
STARTCHAR 0145
ENCODING 325
SWIDTH 792 0
DWIDTH 11 0
BBX 9 13 1 -4
BITMAP
2000
D180
D980
0400
0600
C180
0200
0000
C180
C180
0000
0800
0400
ENDCHAR
STARTCHAR 0146
ENCODING 326
SWIDTH 648 0
DWIDTH 9 0
BBX 8 14 1 -4
BITMAP
22
D1
D9
06
06
C1
02
02
C1
C1
00
00
18
10
ENDCHAR
STARTCHAR 0147
ENCODING 327
SWIDTH 792 0
DWIDTH 11 0
BBX 9 15 1 0
BITMAP
2600
1000
3E00
0400
0000
2000
D180
D980
0400
0600
C180
0200
0000
C180
C180
ENDCHAR
STARTCHAR 0148
ENCODING 328
SWIDTH 648 0
DWIDTH 9 0
BBX 8 15 1 0
BITMAP
58
24
7C
18
00
22
D1
D9
06
06
C1
02
02
C1
C1
ENDCHAR
STARTCHAR 014A
ENCODING 330
SWIDTH 792 0
DWIDTH 11 0
BBX 9 13 1 -3
BITMAP
2000
D180
D980
0400
0600
C180
0200
0000
C180
C180
0000
0200
0100
ENDCHAR
STARTCHAR 014B
ENCODING 331
SWIDTH 648 0
DWIDTH 9 0
BBX 8 13 1 -3
BITMAP
22
D1
D9
06
06
C1
02
02
C1
C1
02
06
08
ENDCHAR
STARTCHAR 014C
ENCODING 332
SWIDTH 792 0
DWIDTH 11 0
BBX 9 13 1 0
BITMAP
3E00
2600
0000
2600
5900
C180
0000
0000
C180
0000
2200
5900
1800
ENDCHAR
STARTCHAR 014D
ENCODING 333
SWIDTH 648 0
DWIDTH 9 0
BBX 8 13 1 0
BITMAP
7C
58
00
26
D9
C1
02
02
C1
02
02
D9
58
ENDCHAR
STARTCHAR 0150
ENCODING 336
SWIDTH 792 0
DWIDTH 11 0
BBX 10 15 1 0
BITMAP
0440
1980
7300
2600
0000
2600
5900
C180
0000
0000
C180
0000
2200
5900
1800
ENDCHAR
STARTCHAR 0151
ENCODING 337
SWIDTH 648 0
DWIDTH 9 0
BBX 9 15 1 0
BITMAP
1980
2200
7700
C800
0000
2600
D900
C100
0200
0200
C100
0200
0200
D900
5800
ENDCHAR
STARTCHAR 0152
ENCODING 338
SWIDTH 1152 0
DWIDTH 16 0
BBX 15 10 1 0
BITMAP
266C
5992
C180
0000
0068
C190
0000
2240
5992
1812
ENDCHAR
STARTCHAR 0153
ENCODING 339
SWIDTH 1080 0
DWIDTH 15 0
BBX 13 10 1 0
BITMAP
2668
D990
C100
0200
0260
C190
0200
0200
D990
5990
ENDCHAR
STARTCHAR 0154
ENCODING 340
SWIDTH 648 0
DWIDTH 9 0
BBX 8 15 1 0
BITMAP
06
08
1C
20
00
24
D8
C1
02
02
C1
06
24
D8
C1
ENDCHAR
STARTCHAR 0155
ENCODING 341
SWIDTH 648 0
DWIDTH 9 0
BBX 8 15 1 0
BITMAP
06
08
1C
20
00
26
D9
C1
02
02
D9
26
06
C1
C1
ENDCHAR
STARTCHAR 0156
ENCODING 342
SWIDTH 648 0
DWIDTH 9 0
BBX 8 14 1 -4
BITMAP
24
D8
C1
02
02
C1
06
24
D8
C1
00
00
18
10
ENDCHAR
STARTCHAR 0157
ENCODING 343
SWIDTH 648 0
DWIDTH 9 0
BBX 8 14 1 -4
BITMAP
26
D9
C1
02
02
D9
26
06
C1
C1
00
00
18
10
ENDCHAR
STARTCHAR 0158
ENCODING 344
SWIDTH 648 0
DWIDTH 9 0
BBX 8 15 1 0
BITMAP
58
24
7C
18
00
24
D8
C1
02
02
C1
06
24
D8
C1
ENDCHAR
STARTCHAR 0159
ENCODING 345
SWIDTH 648 0
DWIDTH 9 0
BBX 8 15 1 0
BITMAP
58
24
7C
18
00
26
D9
C1
02
02
D9
26
06
C1
C1
ENDCHAR
STARTCHAR 015A
ENCODING 346
SWIDTH 648 0
DWIDTH 9 0
BBX 8 15 1 0
BITMAP
06
08
1C
20
00
26
D9
C1
00
26
59
02
02
D9
58
ENDCHAR
STARTCHAR 015B
ENCODING 347
SWIDTH 648 0
DWIDTH 9 0
BBX 8 15 1 0
BITMAP
06
08
1C
20
00
26
D9
C1
00
26
59
02
02
D9
58
ENDCHAR
STARTCHAR 015E
ENCODING 350
SWIDTH 648 0
DWIDTH 9 0
BBX 8 13 1 -3
BITMAP
26
D9
C1
00
26
59
02
02
D9
58
00
20
50
ENDCHAR
STARTCHAR 015F
ENCODING 351
SWIDTH 648 0
DWIDTH 9 0
BBX 8 13 1 -3
BITMAP
26
D9
C1
00
26
59
02
02
D9
58
00
20
50
ENDCHAR
STARTCHAR 0160
ENCODING 352
SWIDTH 648 0
DWIDTH 9 0
BBX 8 15 1 0
BITMAP
58
24
7C
18
00
26
D9
C1
00
26
59
02
02
D9
58
ENDCHAR
STARTCHAR 0161
ENCODING 353
SWIDTH 648 0
DWIDTH 9 0
BBX 8 15 1 0
BITMAP
58
24
7C
18
00
26
D9
C1
00
26
59
02
02
D9
58
ENDCHAR
STARTCHAR 0162
ENCODING 354
SWIDTH 648 0
DWIDTH 9 0
BBX 8 13 1 -3
BITMAP
26
D9
18
00
00
18
00
00
18
18
00
20
50
ENDCHAR
STARTCHAR 0163
ENCODING 355
SWIDTH 648 0
DWIDTH 9 0
BBX 8 13 1 -3
BITMAP
26
D9
18
00
00
18
00
00
18
18
00
20
50
ENDCHAR
STARTCHAR 0164
ENCODING 356
SWIDTH 648 0
DWIDTH 9 0
BBX 8 15 1 0
BITMAP
58
24
7C
18
00
26
D9
18
00
00
18
00
00
18
18
ENDCHAR
STARTCHAR 0165
ENCODING 357
SWIDTH 648 0
DWIDTH 9 0
BBX 8 15 1 0
BITMAP
58
24
7C
18
00
26
D9
18
00
00
18
00
00
18
18
ENDCHAR
STARTCHAR 0166
ENCODING 358
SWIDTH 648 0
DWIDTH 9 0
BBX 8 10 1 0
BITMAP
26
D9
18
00
24
58
00
00
18
18
ENDCHAR
STARTCHAR 0167
ENCODING 359
SWIDTH 648 0
DWIDTH 9 0
BBX 8 10 1 0
BITMAP
26
D9
18
00
24
58
00
00
18
18
ENDCHAR
STARTCHAR 0168
ENCODING 360
SWIDTH 792 0
DWIDTH 11 0
BBX 9 15 1 0
BITMAP
2200
5900
6F00
2600
0000
0000
C180
C180
0000
0000
C180
0000
2200
5900
1800
ENDCHAR
STARTCHAR 0169
ENCODING 361
SWIDTH 648 0
DWIDTH 9 0
BBX 8 15 1 0
BITMAP
51
22
DF
C8
00
02
C1
C1
02
02
C1
02
02
D9
58
ENDCHAR
STARTCHAR 016A
ENCODING 362
SWIDTH 792 0
DWIDTH 11 0
BBX 9 13 1 0
BITMAP
3E00
2600
0000
0000
C180
C180
0000
0000
C180
0000
2200
5900
1800
ENDCHAR
STARTCHAR 016B
ENCODING 363
SWIDTH 648 0
DWIDTH 9 0
BBX 8 13 1 0
BITMAP
7C
58
00
02
C1
C1
02
02
C1
02
02
D9
58
ENDCHAR
STARTCHAR 016E
ENCODING 366
SWIDTH 792 0
DWIDTH 11 0
BBX 9 17 1 0
BITMAP
2600
5900
5100
2200
7F00
1800
0000
0000
C180
C180
0000
0000
C180
0000
2200
5900
1800
ENDCHAR
STARTCHAR 016F
ENCODING 367
SWIDTH 648 0
DWIDTH 9 0
BBX 8 17 1 0
BITMAP
58
26
26
40
7E
24
00
02
C1
C1
02
02
C1
02
02
D9
58
ENDCHAR
STARTCHAR 0170
ENCODING 368
SWIDTH 792 0
DWIDTH 11 0
BBX 10 15 1 0
BITMAP
0440
1980
7300
2600
0000
0000
C180
C180
0000
0000
C180
0000
2200
5900
1800
ENDCHAR
STARTCHAR 0171
ENCODING 369
SWIDTH 648 0
DWIDTH 9 0
BBX 9 15 1 0
BITMAP
1980
2200
7700
C800
0000
0200
C100
C100
0200
0200
C100
0200
0200
D900
5800
ENDCHAR
STARTCHAR 0172
ENCODING 370
SWIDTH 792 0
DWIDTH 11 0
BBX 9 12 1 -2
BITMAP
C180
C180
0000
0000
C180
0000
2200
5900
1800
0400
0600
0100
ENDCHAR
STARTCHAR 0173
ENCODING 371
SWIDTH 648 0
DWIDTH 9 0
BBX 8 13 1 -3
BITMAP
02
C1
C1
02
02
C1
02
02
D9
58
04
06
01
ENDCHAR
STARTCHAR 0174
ENCODING 372
SWIDTH 1080 0
DWIDTH 15 0
BBX 13 15 1 0
BITMAP
0100
0600
0D80
0980
0000
0208
C110
C110
0208
0208
C110
0208
2628
5990
1880
ENDCHAR
STARTCHAR 0175
ENCODING 373
SWIDTH 1080 0
DWIDTH 15 0
BBX 13 15 1 0
BITMAP
0100
0600
0D80
0980
0000
0208
C110
C110
0208
0208
C110
0208
0608
D990
5890
ENDCHAR
STARTCHAR 0176
ENCODING 374
SWIDTH 648 0
DWIDTH 9 0
BBX 8 15 1 0
BITMAP
18
24
7C
58
00
02
C1
C1
02
26
58
24
00
18
18
ENDCHAR
STARTCHAR 0177
ENCODING 375
SWIDTH 648 0
DWIDTH 9 0
BBX 8 15 1 0
BITMAP
18
24
7C
58
00
02
C1
C1
02
02
D9
26
00
18
18
ENDCHAR
STARTCHAR 0178
ENCODING 376
SWIDTH 648 0
DWIDTH 9 0
BBX 8 13 1 0
BITMAP
7C
58
00
02
C1
C1
02
26
58
24
00
18
18
ENDCHAR
STARTCHAR 0179
ENCODING 377
SWIDTH 648 0
DWIDTH 9 0
BBX 8 15 1 0
BITMAP
06
08
1C
20
00
26
D9
08
04
20
50
20
00
D9
D9
ENDCHAR
STARTCHAR 017A
ENCODING 378
SWIDTH 648 0
DWIDTH 9 0
BBX 8 15 1 0
BITMAP
06
08
1C
20
00
26
D9
01
02
26
D8
00
00
D9
D9
ENDCHAR
STARTCHAR 017B
ENCODING 379
SWIDTH 648 0
DWIDTH 9 0
BBX 8 13 1 0
BITMAP
18
18
00
26
D9
08
04
20
50
20
00
D9
D9
ENDCHAR
STARTCHAR 017C
ENCODING 380
SWIDTH 648 0
DWIDTH 9 0
BBX 8 13 1 0
BITMAP
18
18
00
26
D9
01
02
26
D8
00
00
D9
D9
ENDCHAR
STARTCHAR 017D
ENCODING 381
SWIDTH 648 0
DWIDTH 9 0
BBX 8 15 1 0
BITMAP
58
24
7C
18
00
26
D9
08
04
20
50
20
00
D9
D9
ENDCHAR
STARTCHAR 017E
ENCODING 382
SWIDTH 648 0
DWIDTH 9 0
BBX 8 15 1 0
BITMAP
58
24
7C
18
00
26
D9
01
02
26
D8
00
00
D9
D9
ENDCHAR
STARTCHAR 0192
ENCODING 402
SWIDTH 648 0
DWIDTH 9 0
BBX 8 13 1 -3
BITMAP
06
19
18
00
24
58
00
00
18
18
00
20
D0
ENDCHAR
STARTCHAR 01A0
ENCODING 416
SWIDTH 936 0
DWIDTH 13 0
BBX 12 12 1 0
BITMAP
0010
0020
2660
D980
C180
0000
0000
C180
0000
0000
D980
5900
ENDCHAR
STARTCHAR 01A1
ENCODING 417
SWIDTH 792 0
DWIDTH 11 0
BBX 10 12 1 0
BITMAP
0080
0040
2640
D980
C100
0200
0200
C100
0200
0200
D900
5800
ENDCHAR
STARTCHAR 01AF
ENCODING 431
SWIDTH 936 0
DWIDTH 13 0
BBX 12 12 1 0
BITMAP
0010
0020
0060
C180
C180
0000
0000
C180
0000
2200
5900
1800
ENDCHAR
STARTCHAR 01B0
ENCODING 432
SWIDTH 792 0
DWIDTH 11 0
BBX 10 12 1 0
BITMAP
0080
0040
0240
C180
C100
0200
0200
C100
0200
0200
D900
5800
ENDCHAR
STARTCHAR 01CD
ENCODING 461
SWIDTH 648 0
DWIDTH 9 0
BBX 8 15 1 0
BITMAP
58
24
7C
18
00
24
58
C1
02
02
D9
26
02
C1
C1
ENDCHAR
STARTCHAR 01CE
ENCODING 462
SWIDTH 648 0
DWIDTH 9 0
BBX 8 15 1 0
BITMAP
58
24
7C
18
00
26
D9
C1
02
02
D9
26
02
C1
C1
ENDCHAR
STARTCHAR 01CF
ENCODING 463
SWIDTH 432 0
DWIDTH 6 0
BBX 5 15 1 0
BITMAP
D8
00
F8
50
00
20
D8
50
20
20
50
20
20
D8
D8
ENDCHAR
STARTCHAR 01D0
ENCODING 464
SWIDTH 288 0
DWIDTH 4 0
BBX 5 15 0 0
BITMAP
68
90
F8
60
00
00
60
60
00
00
60
00
00
60
60
ENDCHAR
STARTCHAR 01D1
ENCODING 465
SWIDTH 792 0
DWIDTH 11 0
BBX 9 15 1 0
BITMAP
2600
1000
3E00
0400
0000
2600
5900
C180
0000
0000
C180
0000
2200
5900
1800
ENDCHAR
STARTCHAR 01D2
ENCODING 466
SWIDTH 648 0
DWIDTH 9 0
BBX 8 15 1 0
BITMAP
58
24
7C
18
00
26
D9
C1
02
02
C1
02
02
D9
58
ENDCHAR
STARTCHAR 01D3
ENCODING 467
SWIDTH 792 0
DWIDTH 11 0
BBX 9 15 1 0
BITMAP
2600
1000
3E00
0400
0000
0000
C180
C180
0000
0000
C180
0000
2200
5900
1800
ENDCHAR
STARTCHAR 01D4
ENCODING 468
SWIDTH 648 0
DWIDTH 9 0
BBX 8 15 1 0
BITMAP
58
24
7C
18
00
02
C1
C1
02
02
C1
02
02
D9
58
ENDCHAR
STARTCHAR 01D5
ENCODING 469
SWIDTH 792 0
DWIDTH 11 0
BBX 9 16 1 0
BITMAP
2600
2600
0000
3600
2600
0000
0000
C180
C180
0000
0000
C180
0000
2200
5900
1800
ENDCHAR
STARTCHAR 01D6
ENCODING 470
SWIDTH 648 0
DWIDTH 9 0
BBX 8 16 1 0
BITMAP
58
58
00
7C
58
00
02
C1
C1
02
02
C1
02
02
D9
58
ENDCHAR
STARTCHAR 01D7
ENCODING 471
SWIDTH 792 0
DWIDTH 11 0
BBX 9 17 1 0
BITMAP
0600
0800
1800
0000
3600
2600
0000
0000
C180
C180
0000
0000
C180
0000
2200
5900
1800
ENDCHAR
STARTCHAR 01D8
ENCODING 472
SWIDTH 648 0
DWIDTH 9 0
BBX 8 17 1 0
BITMAP
08
04
20
00
7C
58
00
02
C1
C1
02
02
C1
02
02
D9
58
ENDCHAR
STARTCHAR 01D9
ENCODING 473
SWIDTH 792 0
DWIDTH 11 0
BBX 9 17 1 0
BITMAP
1000
2600
0400
0000
3600
2600
0000
0000
C180
C180
0000
0000
C180
0000
2200
5900
1800
ENDCHAR
STARTCHAR 01DA
ENCODING 474
SWIDTH 648 0
DWIDTH 9 0
BBX 8 17 1 0
BITMAP
24
58
18
00
7C
58
00
02
C1
C1
02
02
C1
02
02
D9
58
ENDCHAR
STARTCHAR 01DB
ENCODING 475
SWIDTH 792 0
DWIDTH 11 0
BBX 9 17 1 0
BITMAP
5000
2000
0400
0000
3600
2600
0000
0000
C180
C180
0000
0000
C180
0000
2200
5900
1800
ENDCHAR
STARTCHAR 01DC
ENCODING 476
SWIDTH 648 0
DWIDTH 9 0
BBX 8 17 1 0
BITMAP
20
50
18
00
7C
58
00
02
C1
C1
02
02
C1
02
02
D9
58
ENDCHAR
STARTCHAR 0218
ENCODING 536
SWIDTH 648 0
DWIDTH 9 0
BBX 8 14 1 -4
BITMAP
26
D9
C1
00
26
59
02
02
D9
58
00
00
18
10
ENDCHAR
STARTCHAR 0219
ENCODING 537
SWIDTH 648 0
DWIDTH 9 0
BBX 8 14 1 -4
BITMAP
26
D9
C1
00
26
59
02
02
D9
58
00
00
18
10
ENDCHAR
STARTCHAR 021A
ENCODING 538
SWIDTH 648 0
DWIDTH 9 0
BBX 8 14 1 -4
BITMAP
26
D9
18
00
00
18
00
00
18
18
00
00
18
10
ENDCHAR
STARTCHAR 021B
ENCODING 539
SWIDTH 648 0
DWIDTH 9 0
BBX 8 14 1 -4
BITMAP
26
D9
18
00
00
18
00
00
18
18
00
00
18
10
ENDCHAR
STARTCHAR 02BC
ENCODING 700
SWIDTH 144 0
DWIDTH 2 0
BBX 2 3 0 7
BITMAP
40
80
80
ENDCHAR
STARTCHAR 02C6
ENCODING 710
SWIDTH 360 0
DWIDTH 5 0
BBX 5 4 0 11
BITMAP
10
68
D8
90
ENDCHAR
STARTCHAR 02C7
ENCODING 711
SWIDTH 360 0
DWIDTH 5 0
BBX 5 4 0 11
BITMAP
90
48
F8
10
ENDCHAR
STARTCHAR 02D8
ENCODING 728
SWIDTH 432 0
DWIDTH 6 0
BBX 7 4 0 11
BITMAP
82
44
FE
10
ENDCHAR
STARTCHAR 02D9
ENCODING 729
SWIDTH 144 0
DWIDTH 2 0
BBX 2 2 0 11
BITMAP
C0
80
ENDCHAR
STARTCHAR 02DA
ENCODING 730
SWIDTH 432 0
DWIDTH 6 0
BBX 7 6 0 11
BITMAP
6C
92
82
44
FE
10
ENDCHAR
STARTCHAR 02DB
ENCODING 731
SWIDTH 216 0
DWIDTH 3 0
BBX 3 2 2 -2
BITMAP
40
A0
ENDCHAR
STARTCHAR 02DC
ENCODING 732
SWIDTH 576 0
DWIDTH 8 0
BBX 8 4 0 11
BITMAP
13
68
DF
82
ENDCHAR
STARTCHAR 02DD
ENCODING 733
SWIDTH 648 0
DWIDTH 9 0
BBX 9 4 0 11
BITMAP
1100
2880
7700
8200
ENDCHAR
STARTCHAR 0300
ENCODING 768
SWIDTH 0 0
DWIDTH 0 0
BBX 5 4 -6 11
BITMAP
C0
20
70
18
ENDCHAR
STARTCHAR 0301
ENCODING 769
SWIDTH 0 0
DWIDTH 0 0
BBX 5 4 -5 11
BITMAP
10
08
70
A0
ENDCHAR
STARTCHAR 0302
ENCODING 770
SWIDTH 0 0
DWIDTH 0 0
BBX 5 4 -5 11
BITMAP
40
B0
D8
48
ENDCHAR
STARTCHAR 0303
ENCODING 771
SWIDTH 0 0
DWIDTH 0 0
BBX 8 4 -8 11
BITMAP
41
32
DF
C8
ENDCHAR
STARTCHAR 0304
ENCODING 772
SWIDTH 0 0
DWIDTH 0 0
BBX 5 2 -5 11
BITMAP
F8
48
ENDCHAR
STARTCHAR 0306
ENCODING 774
SWIDTH 0 0
DWIDTH 0 0
BBX 7 4 -7 11
BITMAP
82
44
FE
10
ENDCHAR
STARTCHAR 0307
ENCODING 775
SWIDTH 0 0
DWIDTH 0 0
BBX 2 2 -2 11
BITMAP
C0
40
ENDCHAR
STARTCHAR 0308
ENCODING 776
SWIDTH 0 0
DWIDTH 0 0
BBX 5 2 -5 11
BITMAP
D8
48
ENDCHAR
STARTCHAR 0309
ENCODING 777
SWIDTH 0 0
DWIDTH 0 0
BBX 4 5 -4 11
BITMAP
80
90
20
F0
80
ENDCHAR
STARTCHAR 030A
ENCODING 778
SWIDTH 0 0
DWIDTH 0 0
BBX 7 6 -7 11
BITMAP
6C
92
82
44
FE
10
ENDCHAR
STARTCHAR 030B
ENCODING 779
SWIDTH 0 0
DWIDTH 0 0
BBX 9 4 -9 11
BITMAP
1900
2080
7700
8A00
ENDCHAR
STARTCHAR 030C
ENCODING 780
SWIDTH 0 0
DWIDTH 0 0
BBX 5 4 -5 11
BITMAP
48
90
F8
40
ENDCHAR
STARTCHAR 031B
ENCODING 795
SWIDTH 0 0
DWIDTH 0 0
BBX 5 4 -5 8
BITMAP
08
10
B0
40
ENDCHAR
STARTCHAR 0323
ENCODING 803
SWIDTH 0 0
DWIDTH 0 0
BBX 2 2 -2 -3
BITMAP
80
40
ENDCHAR
STARTCHAR 0326
ENCODING 806
SWIDTH 0 0
DWIDTH 0 0
BBX 2 2 -2 -4
BITMAP
80
40
ENDCHAR
STARTCHAR 0327
ENCODING 807
SWIDTH 0 0
DWIDTH 0 0
BBX 3 3 -4 -3
BITMAP
20
60
80
ENDCHAR
STARTCHAR 0328
ENCODING 808
SWIDTH 0 0
DWIDTH 0 0
BBX 3 3 -2 -3
BITMAP
80
80
60
ENDCHAR
STARTCHAR 0335
ENCODING 821
SWIDTH 0 0
DWIDTH 0 0
BBX 5 2 -6 4
BITMAP
20
D8
ENDCHAR
STARTCHAR 0336
ENCODING 822
SWIDTH 0 0
DWIDTH 0 0
BBX 12 2 -12 7
BITMAP
CC90
CC90
ENDCHAR
STARTCHAR 0337
ENCODING 823
SWIDTH 0 0
DWIDTH 0 0
BBX 5 2 -6 4
BITMAP
20
D8
ENDCHAR
STARTCHAR 0338
ENCODING 824
SWIDTH 0 0
DWIDTH 0 0
BBX 5 10 -5 0
BITMAP
10
08
00
30
20
40
A0
A0
40
40
ENDCHAR
STARTCHAR 0401
ENCODING 1025
SWIDTH 648 0
DWIDTH 9 0
BBX 8 13 1 0
BITMAP
7C
58
00
26
59
C0
00
24
D8
00
20
59
19
ENDCHAR
STARTCHAR 0410
ENCODING 1040
SWIDTH 648 0
DWIDTH 9 0
BBX 8 10 1 0
BITMAP
24
58
C1
02
02
D9
26
02
C1
C1
ENDCHAR
STARTCHAR 0411
ENCODING 1041
SWIDTH 648 0
DWIDTH 9 0
BBX 8 10 1 0
BITMAP
26
D9
C0
00
26
D9
02
02
D9
58
ENDCHAR
STARTCHAR 0412
ENCODING 1042
SWIDTH 648 0
DWIDTH 9 0
BBX 8 10 1 0
BITMAP
26
D9
C1
06
26
D9
02
02
D9
D8
ENDCHAR
STARTCHAR 0413
ENCODING 1043
SWIDTH 648 0
DWIDTH 9 0
BBX 8 10 1 0
BITMAP
26
D9
C0
00
00
C0
00
00
C0
C0
ENDCHAR
STARTCHAR 0414
ENCODING 1044
SWIDTH 792 0
DWIDTH 11 0
BBX 11 11 0 -1
BITMAP
2C80
1300
1100
2080
2080
1100
2080
2080
1300
9320
4040
ENDCHAR
STARTCHAR 0415
ENCODING 1045
SWIDTH 648 0
DWIDTH 9 0
BBX 8 10 1 0
BITMAP
26
59
C0
00
24
D8
00
20
59
19
ENDCHAR
STARTCHAR 0416
ENCODING 1046
SWIDTH 1080 0
DWIDTH 15 0
BBX 13 10 1 0
BITMAP
0208
C110
5110
2260
0640
1980
2260
2228
C110
C110
ENDCHAR
STARTCHAR 0417
ENCODING 1047
SWIDTH 792 0
DWIDTH 11 0
BBX 9 10 1 0
BITMAP
2600
5900
C180
0200
0600
1900
0200
2200
5900
1800
ENDCHAR
STARTCHAR 0418
ENCODING 1048
SWIDTH 792 0
DWIDTH 11 0
BBX 9 9 1 1
BITMAP
C180
C180
0200
0600
C980
0400
2000
D180
C180
ENDCHAR
STARTCHAR 0419
ENCODING 1049
SWIDTH 792 0
DWIDTH 11 0
BBX 9 15 1 0
BITMAP
5100
2200
7F00
1800
0000
0000
C180
C180
0200
0600
C980
0400
2000
D180
C180
ENDCHAR
STARTCHAR 041A
ENCODING 1050
SWIDTH 648 0
DWIDTH 9 0
BBX 8 10 1 0
BITMAP
02
C1
C8
04
20
D8
04
06
C1
C1
ENDCHAR
STARTCHAR 041B
ENCODING 1051
SWIDTH 792 0
DWIDTH 11 0
BBX 9 10 1 0
BITMAP
2600
5980
5180
2000
2000
5180
2000
2000
D180
C180
ENDCHAR
STARTCHAR 041C
ENCODING 1052
SWIDTH 936 0
DWIDTH 13 0
BBX 12 10 1 0
BITMAP
2060
D090
D990
0620
0620
C010
0020
0020
C010
C010
ENDCHAR
STARTCHAR 041D
ENCODING 1053
SWIDTH 792 0
DWIDTH 11 0
BBX 9 9 1 1
BITMAP
C180
C180
0000
2600
D980
0000
0000
C180
C180
ENDCHAR
STARTCHAR 041E
ENCODING 1054
SWIDTH 792 0
DWIDTH 11 0
BBX 9 10 1 0
BITMAP
2600
5900
C180
0000
0000
C180
0000
2200
5900
1800
ENDCHAR
STARTCHAR 041F
ENCODING 1055
SWIDTH 792 0
DWIDTH 11 0
BBX 9 10 1 0
BITMAP
2600
D980
C180
0000
0000
C180
0000
0000
C180
C180
ENDCHAR
STARTCHAR 0420
ENCODING 1056
SWIDTH 648 0
DWIDTH 9 0
BBX 8 10 1 0
BITMAP
24
D8
C1
02
02
C1
06
24
D8
C0
ENDCHAR
STARTCHAR 0421
ENCODING 1057
SWIDTH 792 0
DWIDTH 11 0
BBX 9 10 1 0
BITMAP
2600
5900
C180
0000
0000
C000
0000
2200
5900
1800
ENDCHAR
STARTCHAR 0422
ENCODING 1058
SWIDTH 648 0
DWIDTH 9 0
BBX 8 10 1 0
BITMAP
26
D9
18
00
00
18
00
00
18
18
ENDCHAR
STARTCHAR 0423
ENCODING 1059
SWIDTH 648 0
DWIDTH 9 0
BBX 8 10 1 0
BITMAP
02
C1
C1
22
26
19
02
02
D9
D8
ENDCHAR
STARTCHAR 0424
ENCODING 1060
SWIDTH 864 0
DWIDTH 12 0
BBX 10 13 1 -1
BITMAP
0800
0400
2600
5980
C880
0440
0440
C880
0440
2440
5980
1900
0400
ENDCHAR
STARTCHAR 0425
ENCODING 1061
SWIDTH 792 0
DWIDTH 11 0
BBX 9 9 1 1
BITMAP
C180
C180
2200
2600
5900
2200
0000
C180
C180
ENDCHAR
STARTCHAR 0426
ENCODING 1062
SWIDTH 792 0
DWIDTH 11 0
BBX 10 10 1 0
BITMAP
C180
C180
0000
0000
C180
0000
0000
D980
5980
0040
ENDCHAR
STARTCHAR 0427
ENCODING 1063
SWIDTH 648 0
DWIDTH 9 0
BBX 8 10 1 0
BITMAP
02
C1
C1
22
26
19
02
02
01
01
ENDCHAR
STARTCHAR 0428
ENCODING 1064
SWIDTH 1080 0
DWIDTH 15 0
BBX 13 10 1 0
BITMAP
0208
C110
C110
0208
0208
C110
0208
0208
D990
5990
ENDCHAR
STARTCHAR 0429
ENCODING 1065
SWIDTH 1080 0
DWIDTH 15 0
BBX 15 11 1 -1
BITMAP
0208
C110
C110
0208
0208
C110
0208
0208
D990
5992
0004
ENDCHAR
STARTCHAR 042A
ENCODING 1066
SWIDTH 792 0
DWIDTH 11 0
BBX 9 10 1 0
BITMAP
2000
D000
5000
2000
2600
5980
2000
2000
5980
1900
ENDCHAR
STARTCHAR 042B
ENCODING 1067
SWIDTH 936 0
DWIDTH 13 0
BBX 11 9 1 1
BITMAP
C060
C060
0000
2600
D960
0200
0200
D960
5860
ENDCHAR
STARTCHAR 042C
ENCODING 1068
SWIDTH 648 0
DWIDTH 9 0
BBX 8 9 1 1
BITMAP
C0
C0
00
26
D9
02
02
D9
58
ENDCHAR
STARTCHAR 042D
ENCODING 1069
SWIDTH 792 0
DWIDTH 11 0
BBX 9 10 1 0
BITMAP
2600
5900
C180
0000
0600
1980
0000
2200
5900
1800
ENDCHAR
STARTCHAR 042E
ENCODING 1070
SWIDTH 1080 0
DWIDTH 15 0
BBX 13 10 1 0
BITMAP
0260
C190
C810
0408
2408
D810
0408
0628
C190
C180
ENDCHAR
STARTCHAR 042F
ENCODING 1071
SWIDTH 648 0
DWIDTH 9 0
BBX 8 10 1 0
BITMAP
26
59
C1
02
02
C1
22
26
59
C1
ENDCHAR
STARTCHAR 0430
ENCODING 1072
SWIDTH 648 0
DWIDTH 9 0
BBX 8 10 1 0
BITMAP
26
D9
C1
02
02
D9
26
02
C1
C1
ENDCHAR
STARTCHAR 0431
ENCODING 1073
SWIDTH 648 0
DWIDTH 9 0
BBX 8 10 1 0
BITMAP
26
D9
C0
00
26
D9
02
02
D9
58
ENDCHAR
STARTCHAR 0432
ENCODING 1074
SWIDTH 648 0
DWIDTH 9 0
BBX 8 10 1 0
BITMAP
26
D9
C1
06
24
D8
06
02
D9
D8
ENDCHAR
STARTCHAR 0433
ENCODING 1075
SWIDTH 576 0
DWIDTH 8 0
BBX 6 10 1 0
BITMAP
24
D8
C0
00
00
C0
00
00
C0
C0
ENDCHAR
STARTCHAR 0434
ENCODING 1076
SWIDTH 792 0
DWIDTH 11 0
BBX 11 11 0 -1
BITMAP
2C80
1300
1100
2080
2080
1100
2080
2080
1300
9320
4040
ENDCHAR
STARTCHAR 0435
ENCODING 1077
SWIDTH 648 0
DWIDTH 9 0
BBX 8 10 1 0
BITMAP
26
D9
C0
00
24
D8
00
00
D9
59
ENDCHAR
STARTCHAR 0436
ENCODING 1078
SWIDTH 1080 0
DWIDTH 15 0
BBX 13 10 1 0
BITMAP
0208
C110
C110
2228
2660
5990
2228
0208
C110
C110
ENDCHAR
STARTCHAR 0437
ENCODING 1079
SWIDTH 648 0
DWIDTH 9 0
BBX 8 10 1 0
BITMAP
26
D9
C1
06
04
18
06
02
D9
58
ENDCHAR
STARTCHAR 0438
ENCODING 1080
SWIDTH 648 0
DWIDTH 9 0
BBX 8 10 1 0
BITMAP
02
C1
C1
02
06
C9
06
22
D1
C1
ENDCHAR
STARTCHAR 0439
ENCODING 1081
SWIDTH 648 0
DWIDTH 9 0
BBX 8 15 1 0
BITMAP
26
40
7E
24
00
02
C1
C1
02
06
C9
06
22
D1
C1
ENDCHAR
STARTCHAR 043A
ENCODING 1082
SWIDTH 648 0
DWIDTH 9 0
BBX 8 10 1 0
BITMAP
02
C1
C1
06
24
D8
06
02
C1
C1
ENDCHAR
STARTCHAR 043B
ENCODING 1083
SWIDTH 792 0
DWIDTH 11 0
BBX 9 10 1 0
BITMAP
2600
5980
5180
2000
2000
5180
2000
2000
D180
C180
ENDCHAR
STARTCHAR 043C
ENCODING 1084
SWIDTH 864 0
DWIDTH 12 0
BBX 10 10 1 0
BITMAP
2040
D180
D980
0640
0440
C080
0040
0040
C080
C080
ENDCHAR
STARTCHAR 043D
ENCODING 1085
SWIDTH 648 0
DWIDTH 9 0
BBX 8 10 1 0
BITMAP
02
C1
C1
02
26
D9
02
02
C1
C1
ENDCHAR
STARTCHAR 043E
ENCODING 1086
SWIDTH 648 0
DWIDTH 9 0
BBX 8 10 1 0
BITMAP
26
D9
C1
02
02
C1
02
02
D9
58
ENDCHAR
STARTCHAR 043F
ENCODING 1087
SWIDTH 648 0
DWIDTH 9 0
BBX 8 10 1 0
BITMAP
26
D9
C1
02
02
C1
02
02
C1
C1
ENDCHAR
STARTCHAR 0440
ENCODING 1088
SWIDTH 648 0
DWIDTH 9 0
BBX 8 10 1 0
BITMAP
26
D9
C1
02
02
D9
26
00
C0
C0
ENDCHAR
STARTCHAR 0441
ENCODING 1089
SWIDTH 648 0
DWIDTH 9 0
BBX 8 10 1 0
BITMAP
26
D9
C1
02
00
C0
00
02
D9
58
ENDCHAR
STARTCHAR 0442
ENCODING 1090
SWIDTH 648 0
DWIDTH 9 0
BBX 8 10 1 0
BITMAP
26
D9
18
00
00
18
00
00
18
18
ENDCHAR
STARTCHAR 0443
ENCODING 1091
SWIDTH 648 0
DWIDTH 9 0
BBX 8 10 1 0
BITMAP
02
C1
C1
02
26
59
02
02
D9
D8
ENDCHAR
STARTCHAR 0444
ENCODING 1092
SWIDTH 864 0
DWIDTH 12 0
BBX 10 13 1 -1
BITMAP
0800
0400
2640
D980
C880
0440
0440
C880
0440
0440
D980
5980
0400
ENDCHAR
STARTCHAR 0445
ENCODING 1093
SWIDTH 648 0
DWIDTH 9 0
BBX 8 10 1 0
BITMAP
02
C1
C1
26
24
58
26
02
C1
C1
ENDCHAR
STARTCHAR 0446
ENCODING 1094
SWIDTH 720 0
DWIDTH 10 0
BBX 9 10 1 -1
BITMAP
0200
C100
C100
0200
0200
C100
0200
0200
D900
5980
ENDCHAR
STARTCHAR 0447
ENCODING 1095
SWIDTH 648 0
DWIDTH 9 0
BBX 8 10 1 0
BITMAP
02
C1
C1
02
26
59
02
02
01
01
ENDCHAR
STARTCHAR 0448
ENCODING 1096
SWIDTH 864 0
DWIDTH 12 0
BBX 10 10 1 0
BITMAP
0440
C880
C880
0440
0440
C880
0440
0440
D980
5980
ENDCHAR
STARTCHAR 0449
ENCODING 1097
SWIDTH 936 0
DWIDTH 13 0
BBX 12 11 1 -1
BITMAP
0440
C880
C880
0440
0440
C880
0440
0440
D980
5990
0020
ENDCHAR
STARTCHAR 044A
ENCODING 1098
SWIDTH 792 0
DWIDTH 11 0
BBX 9 10 1 0
BITMAP
2000
D000
5000
2000
2600
5980
2000
2000
5980
1900
ENDCHAR
STARTCHAR 044B
ENCODING 1099
SWIDTH 936 0
DWIDTH 13 0
BBX 11 9 1 1
BITMAP
C060
C060
0000
2600
D960
0200
0200
D960
5860
ENDCHAR
STARTCHAR 044C
ENCODING 1100
SWIDTH 648 0
DWIDTH 9 0
BBX 8 9 1 1
BITMAP
C0
C0
00
26
D9
02
02
D9
58
ENDCHAR
STARTCHAR 044D
ENCODING 1101
SWIDTH 792 0
DWIDTH 11 0
BBX 9 10 1 0
BITMAP
2600
D980
C180
0000
0600
1980
0000
0000
D980
5900
ENDCHAR
STARTCHAR 044E
ENCODING 1102
SWIDTH 936 0
DWIDTH 13 0
BBX 12 10 1 0
BITMAP
0660
C990
C810
0420
2420
D810
0420
0420
C990
C180
ENDCHAR
STARTCHAR 044F
ENCODING 1103
SWIDTH 648 0
DWIDTH 9 0
BBX 8 10 1 0
BITMAP
26
D9
C1
02
02
D9
26
22
C1
C1
ENDCHAR
STARTCHAR 0451
ENCODING 1105
SWIDTH 648 0
DWIDTH 9 0
BBX 8 13 1 0
BITMAP
7C
58
00
26
D9
C0
00
24
D8
00
00
D9
59
ENDCHAR
STARTCHAR 1E80
ENCODING 7808
SWIDTH 1080 0
DWIDTH 15 0
BBX 13 15 1 0
BITMAP
1800
0400
0E00
0100
0000
0208
C110
C110
0208
0208
C110
0208
2628
5990
1880
ENDCHAR
STARTCHAR 1E81
ENCODING 7809
SWIDTH 1080 0
DWIDTH 15 0
BBX 13 15 1 0
BITMAP
1800
0400
0E00
0100
0000
0208
C110
C110
0208
0208
C110
0208
0608
D990
5890
ENDCHAR
STARTCHAR 1E82
ENCODING 7810
SWIDTH 1080 0
DWIDTH 15 0
BBX 13 15 1 0
BITMAP
0040
0180
0300
0600
0000
0208
C110
C110
0208
0208
C110
0208
2628
5990
1880
ENDCHAR
STARTCHAR 1E83
ENCODING 7811
SWIDTH 1080 0
DWIDTH 15 0
BBX 13 15 1 0
BITMAP
0040
0180
0300
0600
0000
0208
C110
C110
0208
0208
C110
0208
0608
D990
5890
ENDCHAR
STARTCHAR 1E84
ENCODING 7812
SWIDTH 1080 0
DWIDTH 15 0
BBX 13 13 1 0
BITMAP
0D80
0980
0000
0208
C110
C110
0208
0208
C110
0208
2628
5990
1880
ENDCHAR
STARTCHAR 1E85
ENCODING 7813
SWIDTH 1080 0
DWIDTH 15 0
BBX 13 13 1 0
BITMAP
0D80
0980
0000
0208
C110
C110
0208
0208
C110
0208
0608
D990
5890
ENDCHAR
STARTCHAR 1E9E
ENCODING 7838
SWIDTH 648 0
DWIDTH 9 0
BBX 8 10 1 0
BITMAP
26
D9
C1
06
06
D9
02
02
D9
D8
ENDCHAR
STARTCHAR 1EA0
ENCODING 7840
SWIDTH 648 0
DWIDTH 9 0
BBX 8 13 1 -3
BITMAP
24
58
C1
02
02
D9
26
02
C1
C1
00
00
18
ENDCHAR
STARTCHAR 1EA1
ENCODING 7841
SWIDTH 648 0
DWIDTH 9 0
BBX 8 13 1 -3
BITMAP
26
D9
C1
02
02
D9
26
02
C1
C1
00
00
18
ENDCHAR
STARTCHAR 1EA2
ENCODING 7842
SWIDTH 648 0
DWIDTH 9 0
BBX 8 16 1 0
BITMAP
58
58
04
1C
18
00
24
58
C1
02
02
D9
26
02
C1
C1
ENDCHAR
STARTCHAR 1EA3
ENCODING 7843
SWIDTH 648 0
DWIDTH 9 0
BBX 8 16 1 0
BITMAP
58
58
04
1C
18
00
26
D9
C1
02
02
D9
26
02
C1
C1
ENDCHAR
STARTCHAR 1EA4
ENCODING 7844
SWIDTH 648 0
DWIDTH 9 0
BBX 8 19 1 0
BITMAP
06
08
18
20
18
24
7C
58
00
24
58
C1
02
02
D9
26
02
C1
C1
ENDCHAR
STARTCHAR 1EA5
ENCODING 7845
SWIDTH 648 0
DWIDTH 9 0
BBX 8 19 1 0
BITMAP
06
08
18
20
18
24
7C
58
00
26
D9
C1
02
02
D9
26
02
C1
C1
ENDCHAR
STARTCHAR 1EA6
ENCODING 7846
SWIDTH 648 0
DWIDTH 9 0
BBX 8 19 1 0
BITMAP
C0
20
20
18
18
24
7C
58
00
24
58
C1
02
02
D9
26
02
C1
C1
ENDCHAR
STARTCHAR 1EA7
ENCODING 7847
SWIDTH 648 0
DWIDTH 9 0
BBX 8 19 1 0
BITMAP
C0
20
20
18
18
24
7C
58
00
26
D9
C1
02
02
D9
26
02
C1
C1
ENDCHAR
STARTCHAR 1EA8
ENCODING 7848
SWIDTH 648 0
DWIDTH 9 0
BBX 8 20 1 0
BITMAP
58
58
04
04
18
18
24
7C
58
00
24
58
C1
02
02
D9
26
02
C1
C1
ENDCHAR
STARTCHAR 1EA9
ENCODING 7849
SWIDTH 648 0
DWIDTH 9 0
BBX 8 20 1 0
BITMAP
58
58
04
04
18
18
24
7C
58
00
26
D9
C1
02
02
D9
26
02
C1
C1
ENDCHAR
STARTCHAR 1EAA
ENCODING 7850
SWIDTH 648 0
DWIDTH 9 0
BBX 8 19 1 0
BITMAP
51
22
06
C8
18
24
7C
58
00
24
58
C1
02
02
D9
26
02
C1
C1
ENDCHAR
STARTCHAR 1EAB
ENCODING 7851
SWIDTH 648 0
DWIDTH 9 0
BBX 8 19 1 0
BITMAP
51
22
06
C8
18
24
7C
58
00
26
D9
C1
02
02
D9
26
02
C1
C1
ENDCHAR
STARTCHAR 1EAC
ENCODING 7852
SWIDTH 648 0
DWIDTH 9 0
BBX 8 18 1 -3
BITMAP
18
24
7C
58
00
24
58
C1
02
02
D9
26
02
C1
C1
00
00
18
ENDCHAR
STARTCHAR 1EAD
ENCODING 7853
SWIDTH 648 0
DWIDTH 9 0
BBX 8 18 1 -3
BITMAP
18
24
7C
58
00
26
D9
C1
02
02
D9
26
02
C1
C1
00
00
18
ENDCHAR
STARTCHAR 1EAE
ENCODING 7854
SWIDTH 648 0
DWIDTH 9 0
BBX 8 19 1 0
BITMAP
06
08
18
20
26
40
7E
24
00
24
58
C1
02
02
D9
26
02
C1
C1
ENDCHAR
STARTCHAR 1EAF
ENCODING 7855
SWIDTH 648 0
DWIDTH 9 0
BBX 8 19 1 0
BITMAP
06
08
18
20
26
40
7E
24
00
26
D9
C1
02
02
D9
26
02
C1
C1
ENDCHAR
STARTCHAR 1EB0
ENCODING 7856
SWIDTH 648 0
DWIDTH 9 0
BBX 8 19 1 0
BITMAP
C0
20
30
08
26
40
7E
24
00
24
58
C1
02
02
D9
26
02
C1
C1
ENDCHAR
STARTCHAR 1EB1
ENCODING 7857
SWIDTH 648 0
DWIDTH 9 0
BBX 8 19 1 0
BITMAP
C0
20
30
08
26
40
7E
24
00
26
D9
C1
02
02
D9
26
02
C1
C1
ENDCHAR
STARTCHAR 1EB2
ENCODING 7858
SWIDTH 648 0
DWIDTH 9 0
BBX 8 20 1 0
BITMAP
58
58
04
04
18
26
40
7E
24
00
24
58
C1
02
02
D9
26
02
C1
C1
ENDCHAR
STARTCHAR 1EB3
ENCODING 7859
SWIDTH 648 0
DWIDTH 9 0
BBX 8 20 1 0
BITMAP
58
58
04
04
18
26
40
7E
24
00
26
D9
C1
02
02
D9
26
02
C1
C1
ENDCHAR
STARTCHAR 1EB4
ENCODING 7860
SWIDTH 648 0
DWIDTH 9 0
BBX 8 19 1 0
BITMAP
51
22
06
C8
26
40
7E
24
00
24
58
C1
02
02
D9
26
02
C1
C1
ENDCHAR
STARTCHAR 1EB5
ENCODING 7861
SWIDTH 648 0
DWIDTH 9 0
BBX 8 19 1 0
BITMAP
51
22
06
C8
26
40
7E
24
00
26
D9
C1
02
02
D9
26
02
C1
C1
ENDCHAR
STARTCHAR 1EB6
ENCODING 7862
SWIDTH 648 0
DWIDTH 9 0
BBX 8 18 1 -3
BITMAP
26
40
7E
24
00
24
58
C1
02
02
D9
26
02
C1
C1
00
00
18
ENDCHAR
STARTCHAR 1EB7
ENCODING 7863
SWIDTH 648 0
DWIDTH 9 0
BBX 8 18 1 -3
BITMAP
26
40
7E
24
00
26
D9
C1
02
02
D9
26
02
C1
C1
00
00
18
ENDCHAR
STARTCHAR 1EB8
ENCODING 7864
SWIDTH 648 0
DWIDTH 9 0
BBX 8 13 1 -3
BITMAP
26
59
C0
00
24
D8
00
20
59
19
00
00
18
ENDCHAR
STARTCHAR 1EB9
ENCODING 7865
SWIDTH 648 0
DWIDTH 9 0
BBX 8 13 1 -3
BITMAP
26
D9
C0
00
24
D8
00
00
D9
59
00
00
18
ENDCHAR
STARTCHAR 1EBA
ENCODING 7866
SWIDTH 648 0
DWIDTH 9 0
BBX 8 16 1 0
BITMAP
58
58
04
1C
18
00
26
59
C0
00
24
D8
00
20
59
19
ENDCHAR
STARTCHAR 1EBB
ENCODING 7867
SWIDTH 648 0
DWIDTH 9 0
BBX 8 16 1 0
BITMAP
58
58
04
1C
18
00
26
D9
C0
00
24
D8
00
00
D9
59
ENDCHAR
STARTCHAR 1EBC
ENCODING 7868
SWIDTH 648 0
DWIDTH 9 0
BBX 8 15 1 0
BITMAP
51
22
DF
C8
00
26
59
C0
00
24
D8
00
20
59
19
ENDCHAR
STARTCHAR 1EBD
ENCODING 7869
SWIDTH 648 0
DWIDTH 9 0
BBX 8 15 1 0
BITMAP
51
22
DF
C8
00
26
D9
C0
00
24
D8
00
00
D9
59
ENDCHAR
STARTCHAR 1EBE
ENCODING 7870
SWIDTH 648 0
DWIDTH 9 0
BBX 8 19 1 0
BITMAP
06
08
18
20
18
24
7C
58
00
26
59
C0
00
24
D8
00
20
59
19
ENDCHAR
STARTCHAR 1EBF
ENCODING 7871
SWIDTH 648 0
DWIDTH 9 0
BBX 8 19 1 0
BITMAP
06
08
18
20
18
24
7C
58
00
26
D9
C0
00
24
D8
00
00
D9
59
ENDCHAR
STARTCHAR 1EC0
ENCODING 7872
SWIDTH 648 0
DWIDTH 9 0
BBX 8 19 1 0
BITMAP
C0
20
20
18
18
24
7C
58
00
26
59
C0
00
24
D8
00
20
59
19
ENDCHAR
STARTCHAR 1EC1
ENCODING 7873
SWIDTH 648 0
DWIDTH 9 0
BBX 8 19 1 0
BITMAP
C0
20
20
18
18
24
7C
58
00
26
D9
C0
00
24
D8
00
00
D9
59
ENDCHAR
STARTCHAR 1EC2
ENCODING 7874
SWIDTH 648 0
DWIDTH 9 0
BBX 8 20 1 0
BITMAP
58
58
04
04
18
18
24
7C
58
00
26
59
C0
00
24
D8
00
20
59
19
ENDCHAR
STARTCHAR 1EC3
ENCODING 7875
SWIDTH 648 0
DWIDTH 9 0
BBX 8 20 1 0
BITMAP
58
58
04
04
18
18
24
7C
58
00
26
D9
C0
00
24
D8
00
00
D9
59
ENDCHAR
STARTCHAR 1EC4
ENCODING 7876
SWIDTH 648 0
DWIDTH 9 0
BBX 8 19 1 0
BITMAP
51
22
06
C8
18
24
7C
58
00
26
59
C0
00
24
D8
00
20
59
19
ENDCHAR
STARTCHAR 1EC5
ENCODING 7877
SWIDTH 648 0
DWIDTH 9 0
BBX 8 19 1 0
BITMAP
51
22
06
C8
18
24
7C
58
00
26
D9
C0
00
24
D8
00
00
D9
59
ENDCHAR
STARTCHAR 1EC6
ENCODING 7878
SWIDTH 648 0
DWIDTH 9 0
BBX 8 18 1 -3
BITMAP
18
24
7C
58
00
26
59
C0
00
24
D8
00
20
59
19
00
00
18
ENDCHAR
STARTCHAR 1EC7
ENCODING 7879
SWIDTH 648 0
DWIDTH 9 0
BBX 8 18 1 -3
BITMAP
18
24
7C
58
00
26
D9
C0
00
24
D8
00
00
D9
59
00
00
18
ENDCHAR
STARTCHAR 1EC8
ENCODING 7880
SWIDTH 432 0
DWIDTH 6 0
BBX 5 16 1 0
BITMAP
D0
D8
00
78
50
00
20
D8
50
20
20
50
20
20
D8
D8
ENDCHAR
STARTCHAR 1EC9
ENCODING 7881
SWIDTH 288 0
DWIDTH 4 0
BBX 4 16 1 0
BITMAP
C0
D0
20
F0
C0
00
00
C0
C0
00
00
C0
00
00
C0
C0
ENDCHAR
STARTCHAR 1ECA
ENCODING 7882
SWIDTH 432 0
DWIDTH 6 0
BBX 5 13 1 -3
BITMAP
20
D8
50
20
20
50
20
20
D8
D8
00
20
50
ENDCHAR
STARTCHAR 1ECB
ENCODING 7883
SWIDTH 288 0
DWIDTH 4 0
BBX 2 12 1 -2
BITMAP
C0
C0
00
00
C0
00
00
C0
C0
00
00
C0
ENDCHAR
STARTCHAR 1ECC
ENCODING 7884
SWIDTH 792 0
DWIDTH 11 0
BBX 9 13 1 -3
BITMAP
2600
5900
C180
0000
0000
C180
0000
2200
5900
1800
0000
0800
0400
ENDCHAR
STARTCHAR 1ECD
ENCODING 7885
SWIDTH 648 0
DWIDTH 9 0
BBX 8 13 1 -3
BITMAP
26
D9
C1
02
02
C1
02
02
D9
58
00
00
18
ENDCHAR
STARTCHAR 1ECE
ENCODING 7886
SWIDTH 792 0
DWIDTH 11 0
BBX 9 16 1 0
BITMAP
2400
2600
0000
0E00
0400
0000
2600
5900
C180
0000
0000
C180
0000
2200
5900
1800
ENDCHAR
STARTCHAR 1ECF
ENCODING 7887
SWIDTH 648 0
DWIDTH 9 0
BBX 8 16 1 0
BITMAP
58
58
04
1C
18
00
26
D9
C1
02
02
C1
02
02
D9
58
ENDCHAR
STARTCHAR 1ED0
ENCODING 7888
SWIDTH 792 0
DWIDTH 11 0
BBX 9 19 1 0
BITMAP
0100
0600
0400
1800
0400
1800
3600
2600
0000
2600
5900
C180
0000
0000
C180
0000
2200
5900
1800
ENDCHAR
STARTCHAR 1ED1
ENCODING 7889
SWIDTH 648 0
DWIDTH 9 0
BBX 8 19 1 0
BITMAP
06
08
18
20
18
24
7C
58
00
26
D9
C1
02
02
C1
02
02
D9
58
ENDCHAR
STARTCHAR 1ED2
ENCODING 7890
SWIDTH 792 0
DWIDTH 11 0
BBX 9 19 1 0
BITMAP
2000
5000
1800
0400
0400
1800
3600
2600
0000
2600
5900
C180
0000
0000
C180
0000
2200
5900
1800
ENDCHAR
STARTCHAR 1ED3
ENCODING 7891
SWIDTH 648 0
DWIDTH 9 0
BBX 8 19 1 0
BITMAP
C0
20
20
18
18
24
7C
58
00
26
D9
C1
02
02
C1
02
02
D9
58
ENDCHAR
STARTCHAR 1ED4
ENCODING 7892
SWIDTH 792 0
DWIDTH 11 0
BBX 9 20 1 0
BITMAP
2400
2600
0000
0800
0400
0400
1800
3600
2600
0000
2600
5900
C180
0000
0000
C180
0000
2200
5900
1800
ENDCHAR
STARTCHAR 1ED5
ENCODING 7893
SWIDTH 648 0
DWIDTH 9 0
BBX 8 20 1 0
BITMAP
58
58
04
04
18
18
24
7C
58
00
26
D9
C1
02
02
C1
02
02
D9
58
ENDCHAR
STARTCHAR 1ED6
ENCODING 7894
SWIDTH 792 0
DWIDTH 11 0
BBX 9 19 1 0
BITMAP
2200
5900
4900
2600
0400
1800
3600
2600
0000
2600
5900
C180
0000
0000
C180
0000
2200
5900
1800
ENDCHAR
STARTCHAR 1ED7
ENCODING 7895
SWIDTH 648 0
DWIDTH 9 0
BBX 8 19 1 0
BITMAP
51
22
06
C8
18
24
7C
58
00
26
D9
C1
02
02
C1
02
02
D9
58
ENDCHAR
STARTCHAR 1ED8
ENCODING 7896
SWIDTH 792 0
DWIDTH 11 0
BBX 9 18 1 -3
BITMAP
0400
1800
3600
2600
0000
2600
5900
C180
0000
0000
C180
0000
2200
5900
1800
0000
0800
0400
ENDCHAR
STARTCHAR 1ED9
ENCODING 7897
SWIDTH 648 0
DWIDTH 9 0
BBX 8 18 1 -3
BITMAP
18
24
7C
58
00
26
D9
C1
02
02
C1
02
02
D9
58
00
00
18
ENDCHAR
STARTCHAR 1EDA
ENCODING 7898
SWIDTH 936 0
DWIDTH 13 0
BBX 12 15 1 0
BITMAP
0100
0600
0C00
1810
0020
2660
D980
C180
0000
0000
C180
0000
0000
D980
5900
ENDCHAR
STARTCHAR 1EDB
ENCODING 7899
SWIDTH 792 0
DWIDTH 11 0
BBX 10 15 1 0
BITMAP
0600
0800
1C00
2080
0040
2640
D980
C100
0200
0200
C100
0200
0200
D900
5800
ENDCHAR
STARTCHAR 1EDC
ENCODING 7900
SWIDTH 936 0
DWIDTH 13 0
BBX 12 15 1 0
BITMAP
2000
5000
3800
0410
0020
2660
D980
C180
0000
0000
C180
0000
0000
D980
5900
ENDCHAR
STARTCHAR 1EDD
ENCODING 7901
SWIDTH 792 0
DWIDTH 11 0
BBX 10 15 1 0
BITMAP
C000
2000
7000
1880
0040
2640
D980
C100
0200
0200
C100
0200
0200
D900
5800
ENDCHAR
STARTCHAR 1EDE
ENCODING 7902
SWIDTH 936 0
DWIDTH 13 0
BBX 12 16 1 0
BITMAP
2400
2600
0000
0E00
0410
0020
2660
D980
C180
0000
0000
C180
0000
0000
D980
5900
ENDCHAR
STARTCHAR 1EDF
ENCODING 7903
SWIDTH 792 0
DWIDTH 11 0
BBX 10 16 1 0
BITMAP
5800
5800
0400
1C00
1880
0040
2640
D980
C100
0200
0200
C100
0200
0200
D900
5800
ENDCHAR
STARTCHAR 1EE0
ENCODING 7904
SWIDTH 936 0
DWIDTH 13 0
BBX 12 15 1 0
BITMAP
2200
5900
6F00
2610
0020
2660
D980
C180
0000
0000
C180
0000
0000
D980
5900
ENDCHAR
STARTCHAR 1EE1
ENCODING 7905
SWIDTH 792 0
DWIDTH 11 0
BBX 10 15 1 0
BITMAP
5100
2200
DF00
C880
0040
2640
D980
C100
0200
0200
C100
0200
0200
D900
5800
ENDCHAR
STARTCHAR 1EE2
ENCODING 7906
SWIDTH 936 0
DWIDTH 13 0
BBX 12 15 1 -3
BITMAP
0010
0020
2660
D980
C180
0000
0000
C180
0000
0000
D980
5900
0000
0800
0400
ENDCHAR
STARTCHAR 1EE3
ENCODING 7907
SWIDTH 792 0
DWIDTH 11 0
BBX 10 15 1 -3
BITMAP
0080
0040
2640
D980
C100
0200
0200
C100
0200
0200
D900
5800
0000
0000
1800
ENDCHAR
STARTCHAR 1EE4
ENCODING 7908
SWIDTH 792 0
DWIDTH 11 0
BBX 9 12 1 -2
BITMAP
C180
C180
0000
0000
C180
0000
2200
5900
1800
0000
0800
0400
ENDCHAR
STARTCHAR 1EE5
ENCODING 7909
SWIDTH 648 0
DWIDTH 9 0
BBX 8 13 1 -3
BITMAP
02
C1
C1
02
02
C1
02
02
D9
58
00
00
18
ENDCHAR
STARTCHAR 1EE6
ENCODING 7910
SWIDTH 792 0
DWIDTH 11 0
BBX 9 16 1 0
BITMAP
2400
2600
0000
0E00
0400
0000
0000
C180
C180
0000
0000
C180
0000
2200
5900
1800
ENDCHAR
STARTCHAR 1EE7
ENCODING 7911
SWIDTH 648 0
DWIDTH 9 0
BBX 8 16 1 0
BITMAP
58
58
04
1C
18
00
02
C1
C1
02
02
C1
02
02
D9
58
ENDCHAR
STARTCHAR 1EE8
ENCODING 7912
SWIDTH 936 0
DWIDTH 13 0
BBX 12 15 1 0
BITMAP
0100
0600
0C00
1810
0020
0060
C180
C180
0000
0000
C180
0000
2200
5900
1800
ENDCHAR
STARTCHAR 1EE9
ENCODING 7913
SWIDTH 792 0
DWIDTH 11 0
BBX 10 15 1 0
BITMAP
0600
0800
1C00
2080
0040
0240
C180
C100
0200
0200
C100
0200
0200
D900
5800
ENDCHAR
STARTCHAR 1EEA
ENCODING 7914
SWIDTH 936 0
DWIDTH 13 0
BBX 12 15 1 0
BITMAP
2000
5000
3800
0410
0020
0060
C180
C180
0000
0000
C180
0000
2200
5900
1800
ENDCHAR
STARTCHAR 1EEB
ENCODING 7915
SWIDTH 792 0
DWIDTH 11 0
BBX 10 15 1 0
BITMAP
C000
2000
7000
1880
0040
0240
C180
C100
0200
0200
C100
0200
0200
D900
5800
ENDCHAR
STARTCHAR 1EEC
ENCODING 7916
SWIDTH 936 0
DWIDTH 13 0
BBX 12 16 1 0
BITMAP
2400
2600
0000
0E00
0410
0020
0060
C180
C180
0000
0000
C180
0000
2200
5900
1800
ENDCHAR
STARTCHAR 1EED
ENCODING 7917
SWIDTH 792 0
DWIDTH 11 0
BBX 10 16 1 0
BITMAP
5800
5800
0400
1C00
1880
0040
0240
C180
C100
0200
0200
C100
0200
0200
D900
5800
ENDCHAR
STARTCHAR 1EEE
ENCODING 7918
SWIDTH 936 0
DWIDTH 13 0
BBX 12 15 1 0
BITMAP
2200
5900
6F00
2610
0020
0060
C180
C180
0000
0000
C180
0000
2200
5900
1800
ENDCHAR
STARTCHAR 1EEF
ENCODING 7919
SWIDTH 792 0
DWIDTH 11 0
BBX 10 15 1 0
BITMAP
5100
2200
DF00
C880
0040
0240
C180
C100
0200
0200
C100
0200
0200
D900
5800
ENDCHAR
STARTCHAR 1EF0
ENCODING 7920
SWIDTH 936 0
DWIDTH 13 0
BBX 12 15 1 -3
BITMAP
0010
0020
0060
C180
C180
0000
0000
C180
0000
2200
5900
1800
0000
0800
0400
ENDCHAR
STARTCHAR 1EF1
ENCODING 7921
SWIDTH 792 0
DWIDTH 11 0
BBX 10 15 1 -3
BITMAP
0080
0040
0240
C180
C100
0200
0200
C100
0200
0200
D900
5800
0000
0000
1800
ENDCHAR
STARTCHAR 1EF2
ENCODING 7922
SWIDTH 648 0
DWIDTH 9 0
BBX 8 15 1 0
BITMAP
C0
20
70
18
00
02
C1
C1
02
26
58
24
00
18
18
ENDCHAR
STARTCHAR 1EF3
ENCODING 7923
SWIDTH 648 0
DWIDTH 9 0
BBX 8 15 1 0
BITMAP
C0
20
70
18
00
02
C1
C1
02
02
D9
26
00
18
18
ENDCHAR
STARTCHAR 1EF4
ENCODING 7924
SWIDTH 648 0
DWIDTH 9 0
BBX 8 13 1 -3
BITMAP
02
C1
C1
02
26
58
24
00
18
18
00
00
18
ENDCHAR
STARTCHAR 1EF5
ENCODING 7925
SWIDTH 648 0
DWIDTH 9 0
BBX 8 13 1 -3
BITMAP
02
C1
C1
02
02
D9
26
00
18
18
00
00
18
ENDCHAR
STARTCHAR 1EF6
ENCODING 7926
SWIDTH 648 0
DWIDTH 9 0
BBX 8 16 1 0
BITMAP
58
58
04
1C
18
00
02
C1
C1
02
26
58
24
00
18
18
ENDCHAR
STARTCHAR 1EF7
ENCODING 7927
SWIDTH 648 0
DWIDTH 9 0
BBX 8 16 1 0
BITMAP
58
58
04
1C
18
00
02
C1
C1
02
02
D9
26
00
18
18
ENDCHAR
STARTCHAR 1EF8
ENCODING 7928
SWIDTH 648 0
DWIDTH 9 0
BBX 8 15 1 0
BITMAP
51
22
DF
C8
00
02
C1
C1
02
26
58
24
00
18
18
ENDCHAR
STARTCHAR 1EF9
ENCODING 7929
SWIDTH 648 0
DWIDTH 9 0
BBX 8 15 1 0
BITMAP
51
22
DF
C8
00
02
C1
C1
02
02
D9
26
00
18
18
ENDCHAR
STARTCHAR 2013
ENCODING 8211
SWIDTH 648 0
DWIDTH 9 0
BBX 9 2 0 4
BITMAP
6C80
9300
ENDCHAR
STARTCHAR 2014
ENCODING 8212
SWIDTH 936 0
DWIDTH 13 0
BBX 14 2 0 4
BITMAP
6CC8
9334
ENDCHAR
STARTCHAR 2018
ENCODING 8216
SWIDTH 144 0
DWIDTH 2 0
BBX 2 3 0 9
BITMAP
40
40
80
ENDCHAR
STARTCHAR 2019
ENCODING 8217
SWIDTH 144 0
DWIDTH 2 0
BBX 2 4 0 8
BITMAP
80
40
40
80
ENDCHAR
STARTCHAR 201A
ENCODING 8218
SWIDTH 144 0
DWIDTH 2 0
BBX 2 3 0 -1
BITMAP
80
80
40
ENDCHAR
STARTCHAR 201C
ENCODING 8220
SWIDTH 432 0
DWIDTH 6 0
BBX 6 4 0 8
BITMAP
04
40
40
8C
ENDCHAR
STARTCHAR 201D
ENCODING 8221
SWIDTH 432 0
DWIDTH 6 0
BBX 6 4 0 8
BITMAP
8C
40
40
88
ENDCHAR
STARTCHAR 201E
ENCODING 8222
SWIDTH 432 0
DWIDTH 6 0
BBX 6 3 0 -1
BITMAP
8C
8C
40
ENDCHAR
STARTCHAR 2020
ENCODING 8224
SWIDTH 432 0
DWIDTH 6 0
BBX 5 10 1 0
BITMAP
20
D8
D8
20
20
50
20
20
50
50
ENDCHAR
STARTCHAR 2021
ENCODING 8225
SWIDTH 432 0
DWIDTH 6 0
BBX 5 10 1 0
BITMAP
20
D8
D8
20
20
D8
20
20
50
50
ENDCHAR
STARTCHAR 2022
ENCODING 8226
SWIDTH 360 0
DWIDTH 5 0
BBX 5 5 0 3
BITMAP
10
68
68
90
68
ENDCHAR
STARTCHAR 2026
ENCODING 8230
SWIDTH 576 0
DWIDTH 8 0
BBX 8 2 0 0
BITMAP
93
93
ENDCHAR
STARTCHAR 2030
ENCODING 8240
SWIDTH 1800 0
DWIDTH 25 0
BBX 23 10 1 0
BITMAP
244000
D88000
C88000
044000
242C48
599336
022040
022040
011336
011234
ENDCHAR
STARTCHAR 2039
ENCODING 8249
SWIDTH 504 0
DWIDTH 7 0
BBX 6 8 0 1
BITMAP
0C
28
10
80
60
10
10
0C
ENDCHAR
STARTCHAR 203A
ENCODING 8250
SWIDTH 504 0
DWIDTH 7 0
BBX 5 8 2 1
BITMAP
40
40
30
10
08
30
A0
40
ENDCHAR
STARTCHAR 2044
ENCODING 8260
SWIDTH 360 0
DWIDTH 5 0
BBX 5 10 0 0
BITMAP
08
10
10
28
20
10
60
60
80
80
ENDCHAR
STARTCHAR 20AC
ENCODING 8364
SWIDTH 792 0
DWIDTH 11 0
BBX 9 14 1 -1
BITMAP
0F80
1980
2000
2000
D900
D900
2000
2000
D900
2600
2000
5000
1980
0600
ENDCHAR
STARTCHAR 2212
ENCODING 8722
SWIDTH 648 0
DWIDTH 9 0
BBX 8 2 1 4
BITMAP
26
D9
ENDCHAR
STARTCHAR E000
ENCODING 57344
SWIDTH 648 0
DWIDTH 9 0
BBX 8 10 1 0
BITMAP
26
D9
C1
02
02
D9
26
02
C1
C1
ENDCHAR
STARTCHAR E017
ENCODING 57367
SWIDTH 1080 0
DWIDTH 15 0
BBX 13 10 1 0
BITMAP
2668
D990
C100
0200
0260
D990
2600
0200
C190
C190
ENDCHAR
STARTCHAR E018
ENCODING 57368
SWIDTH 648 0
DWIDTH 9 0
BBX 8 10 1 0
BITMAP
26
D9
C1
06
24
D8
06
02
D9
D9
ENDCHAR
STARTCHAR E019
ENCODING 57369
SWIDTH 792 0
DWIDTH 11 0
BBX 9 10 1 0
BITMAP
2600
D980
C180
0000
0000
C000
0000
0000
D980
D980
ENDCHAR
STARTCHAR E01E
ENCODING 57374
SWIDTH 792 0
DWIDTH 11 0
BBX 9 10 1 0
BITMAP
2600
D980
C180
0000
0000
C180
0000
0000
D980
D900
ENDCHAR
STARTCHAR E01F
ENCODING 57375
SWIDTH 792 0
DWIDTH 11 0
BBX 11 10 0 0
BITMAP
2CC0
1320
1020
2040
6840
9020
2040
2040
1320
1300
ENDCHAR
STARTCHAR E021
ENCODING 57377
SWIDTH 792 0
DWIDTH 11 0
BBX 11 10 0 0
BITMAP
2CC0
1320
1020
2040
6840
9020
2040
2040
1320
1300
ENDCHAR
STARTCHAR E022
ENCODING 57378
SWIDTH 648 0
DWIDTH 9 0
BBX 8 10 1 0
BITMAP
26
D9
C0
00
24
D8
00
00
D9
D9
ENDCHAR
STARTCHAR E033
ENCODING 57395
SWIDTH 648 0
DWIDTH 9 0
BBX 8 10 1 0
BITMAP
26
D9
C0
00
24
D8
00
00
C0
C0
ENDCHAR
STARTCHAR E034
ENCODING 57396
SWIDTH 792 0
DWIDTH 11 0
BBX 9 10 1 0
BITMAP
2600
D980
C000
0000
0600
C980
0000
0000
D980
D980
ENDCHAR
STARTCHAR E038
ENCODING 57400
SWIDTH 576 0
DWIDTH 8 0
BBX 6 10 1 0
BITMAP
24
D8
08
04
04
C8
04
04
D8
D8
ENDCHAR
STARTCHAR E039
ENCODING 57401
SWIDTH 648 0
DWIDTH 9 0
BBX 8 10 1 0
BITMAP
02
C1
C8
04
26
D9
02
02
C1
C1
ENDCHAR
STARTCHAR E03B
ENCODING 57403
SWIDTH 648 0
DWIDTH 9 0
BBX 8 9 1 1
BITMAP
C0
C0
00
00
C0
00
00
D9
D9
ENDCHAR
STARTCHAR E040
ENCODING 57408
SWIDTH 1080 0
DWIDTH 15 0
BBX 13 10 1 0
BITMAP
2668
D990
C110
0208
0208
C110
0208
0208
C110
C110
ENDCHAR
STARTCHAR E041
ENCODING 57409
SWIDTH 792 0
DWIDTH 11 0
BBX 9 10 1 0
BITMAP
2600
D980
C180
0000
0000
C180
0000
0000
C180
C180
ENDCHAR
STARTCHAR E045
ENCODING 57413
SWIDTH 792 0
DWIDTH 11 0
BBX 9 13 1 -3
BITMAP
2600
D980
C180
0000
0000
C180
0000
0000
C180
C180
0000
0200
0100
ENDCHAR
STARTCHAR E047
ENCODING 57415
SWIDTH 792 0
DWIDTH 11 0
BBX 9 10 1 0
BITMAP
2600
D980
C180
0000
0000
C180
0000
0000
D980
D980
ENDCHAR
STARTCHAR E054
ENCODING 57428
SWIDTH 936 0
DWIDTH 13 0
BBX 12 12 1 0
BITMAP
0010
0020
2660
D980
C180
0000
0000
C180
0000
0000
D980
D980
ENDCHAR
STARTCHAR E05E
ENCODING 57438
SWIDTH 1152 0
DWIDTH 16 0
BBX 15 10 1 0
BITMAP
266C
D992
C180
0000
0068
C190
0000
0000
D992
D992
ENDCHAR
STARTCHAR E05F
ENCODING 57439
SWIDTH 648 0
DWIDTH 9 0
BBX 8 10 1 0
BITMAP
26
D9
C1
02
02
C1
02
26
D9
C0
ENDCHAR
STARTCHAR E060
ENCODING 57440
SWIDTH 648 0
DWIDTH 9 0
BBX 8 9 1 1
BITMAP
D9
D9
02
02
C1
02
26
D9
C0
ENDCHAR
STARTCHAR E061
ENCODING 57441
SWIDTH 792 0
DWIDTH 11 0
BBX 9 11 1 -1
BITMAP
2600
D980
C180
0000
0000
C180
0000
0400
D980
D980
0400
ENDCHAR
STARTCHAR E062
ENCODING 57442
SWIDTH 648 0
DWIDTH 9 0
BBX 8 10 1 0
BITMAP
26
D9
C1
02
02
C1
02
26
D8
C1
ENDCHAR
STARTCHAR E066
ENCODING 57446
SWIDTH 648 0
DWIDTH 9 0
BBX 8 10 1 0
BITMAP
26
D9
C1
00
26
59
02
02
D9
D9
ENDCHAR
STARTCHAR E06C
ENCODING 57452
SWIDTH 792 0
DWIDTH 11 0
BBX 9 9 1 1
BITMAP
C180
C180
0000
0000
C180
0000
0000
D980
D980
ENDCHAR
STARTCHAR E078
ENCODING 57464
SWIDTH 936 0
DWIDTH 13 0
BBX 12 12 1 0
BITMAP
0010
0020
0060
C180
C180
0000
0000
C180
0000
0000
D980
D980
ENDCHAR
STARTCHAR E083
ENCODING 57475
SWIDTH 1080 0
DWIDTH 15 0
BBX 13 10 1 0
BITMAP
0208
C110
C110
0208
0208
C110
0208
0208
D990
D990
ENDCHAR
STARTCHAR E088
ENCODING 57480
SWIDTH 792 0
DWIDTH 11 0
BBX 9 9 1 1
BITMAP
C180
C180
2200
2600
5900
2200
0000
C180
C180
ENDCHAR
STARTCHAR E089
ENCODING 57481
SWIDTH 648 0
DWIDTH 9 0
BBX 8 10 1 0
BITMAP
02
C1
C1
02
02
D9
26
00
18
18
ENDCHAR
STARTCHAR E091
ENCODING 57489
SWIDTH 648 0
DWIDTH 9 0
BBX 8 10 1 0
BITMAP
26
D9
01
02
26
D9
00
00
D9
D9
ENDCHAR
STARTCHAR E095
ENCODING 57493
SWIDTH 792 0
DWIDTH 11 0
BBX 9 10 1 0
BITMAP
2600
D980
C180
0000
2600
D980
0000
0000
D980
5900
ENDCHAR
STARTCHAR E0AC
ENCODING 57516
SWIDTH 1296 0
DWIDTH 18 0
BBX 16 10 1 0
BITMAP
266C
D993
C183
0000
266C
D993
0000
0000
D993
5993
ENDCHAR
STARTCHAR E0AD
ENCODING 57517
SWIDTH 648 0
DWIDTH 9 0
BBX 8 10 1 0
BITMAP
26
59
C0
00
00
C0
00
20
59
19
ENDCHAR
STARTCHAR E0B2
ENCODING 57522
SWIDTH 792 0
DWIDTH 11 0
BBX 9 10 1 0
BITMAP
2600
5900
C180
0000
2600
D980
0000
2000
5980
1980
ENDCHAR
STARTCHAR E0C3
ENCODING 57539
SWIDTH 576 0
DWIDTH 8 0
BBX 6 10 1 0
BITMAP
04
08
08
04
04
08
04
04
D8
D0
ENDCHAR
STARTCHAR E0C4
ENCODING 57540
SWIDTH 1296 0
DWIDTH 18 0
BBX 16 10 1 0
BITMAP
266C
5992
C183
0000
0000
C183
0000
0000
C183
C183
ENDCHAR
STARTCHAR E0C5
ENCODING 57541
SWIDTH 792 0
DWIDTH 11 0
BBX 9 10 1 0
BITMAP
2600
5900
C180
0000
0000
C180
0000
0000
C180
C180
ENDCHAR
STARTCHAR E0C9
ENCODING 57545
SWIDTH 792 0
DWIDTH 11 0
BBX 9 13 1 -3
BITMAP
2600
5900
C180
0000
0000
C180
0000
0000
C180
C180
0000
0200
0100
ENDCHAR
STARTCHAR E0CB
ENCODING 57547
SWIDTH 1296 0
DWIDTH 18 0
BBX 16 10 1 0
BITMAP
266C
5992
C183
0000
006C
C193
0000
2240
5993
1813
ENDCHAR
STARTCHAR E0CC
ENCODING 57548
SWIDTH 576 0
DWIDTH 8 0
BBX 6 10 1 0
BITMAP
24
58
C0
00
00
C0
00
00
C0
C0
ENDCHAR
STARTCHAR E0D0
ENCODING 57552
SWIDTH 648 0
DWIDTH 9 0
BBX 8 10 1 0
BITMAP
26
D9
C0
00
26
59
02
02
D9
D8
ENDCHAR
STARTCHAR E0D5
ENCODING 57557
SWIDTH 1296 0
DWIDTH 18 0
BBX 16 9 1 1
BITMAP
C183
C183
0000
0000
C183
0000
2244
5992
1810
ENDCHAR
STARTCHAR E0DA
ENCODING 57562
SWIDTH 648 0
DWIDTH 9 0
BBX 8 10 1 0
BITMAP
02
C1
C1
22
26
19
02
02
D9
D8
ENDCHAR
STARTCHAR E0E2
ENCODING 57570
SWIDTH 648 0
DWIDTH 9 0
BBX 8 10 1 0
BITMAP
06
19
51
22
02
D9
26
02
C1
C1
ENDCHAR
STARTCHAR E0FA
ENCODING 57594
SWIDTH 648 0
DWIDTH 9 0
BBX 8 10 1 0
BITMAP
26
D9
C1
06
26
D9
02
06
D8
D8
ENDCHAR
STARTCHAR E0FB
ENCODING 57595
SWIDTH 648 0
DWIDTH 9 0
BBX 8 10 1 0
BITMAP
06
19
50
20
00
C0
00
00
D9
D9
ENDCHAR
STARTCHAR E100
ENCODING 57600
SWIDTH 792 0
DWIDTH 11 0
BBX 9 10 1 0
BITMAP
2400
D800
C100
0200
0000
C180
0000
0000
D980
D980
ENDCHAR
STARTCHAR E101
ENCODING 57601
SWIDTH 792 0
DWIDTH 11 0
BBX 11 10 0 0
BITMAP
2C00
1300
1100
20C0
6840
9020
2040
2040
1320
1320
ENDCHAR
STARTCHAR E103
ENCODING 57603
SWIDTH 792 0
DWIDTH 11 0
BBX 11 10 0 0
BITMAP
2C00
1300
1100
20C0
6840
9020
2040
2040
1320
1320
ENDCHAR
STARTCHAR E104
ENCODING 57604
SWIDTH 648 0
DWIDTH 9 0
BBX 8 10 1 0
BITMAP
26
D9
C0
00
24
D8
00
20
59
19
ENDCHAR
STARTCHAR E115
ENCODING 57621
SWIDTH 792 0
DWIDTH 11 0
BBX 9 10 1 0
BITMAP
2600
5980
C000
0000
0600
C980
0000
0000
D980
D980
ENDCHAR
STARTCHAR E119
ENCODING 57625
SWIDTH 648 0
DWIDTH 9 0
BBX 8 9 1 1
BITMAP
C0
C0
00
00
C0
00
20
59
19
ENDCHAR
STARTCHAR E11E
ENCODING 57630
SWIDTH 1080 0
DWIDTH 15 0
BBX 13 10 1 0
BITMAP
2240
D980
C910
0628
0208
C110
0208
0208
C110
C110
ENDCHAR
STARTCHAR E11F
ENCODING 57631
SWIDTH 648 0
DWIDTH 9 0
BBX 8 10 1 0
BITMAP
20
D8
C8
06
02
C1
02
02
C1
C1
ENDCHAR
STARTCHAR E123
ENCODING 57635
SWIDTH 648 0
DWIDTH 9 0
BBX 8 13 1 -3
BITMAP
20
D8
C8
06
02
C1
02
02
C1
C1
02
06
08
ENDCHAR
STARTCHAR E125
ENCODING 57637
SWIDTH 792 0
DWIDTH 11 0
BBX 9 10 1 0
BITMAP
2600
D900
C180
0000
0000
C180
0000
2000
5980
1980
ENDCHAR
STARTCHAR E136
ENCODING 57654
SWIDTH 648 0
DWIDTH 9 0
BBX 8 10 1 0
BITMAP
26
D9
C1
02
02
C1
06
24
D8
C0
ENDCHAR
STARTCHAR E137
ENCODING 57655
SWIDTH 648 0
DWIDTH 9 0
BBX 8 9 1 1
BITMAP
D9
D9
02
02
C1
06
24
D8
C0
ENDCHAR
STARTCHAR E138
ENCODING 57656
SWIDTH 792 0
DWIDTH 11 0
BBX 9 11 1 -1
BITMAP
2600
D900
C180
0000
0000
C180
0000
2400
5980
1980
0400
ENDCHAR
STARTCHAR E139
ENCODING 57657
SWIDTH 648 0
DWIDTH 9 0
BBX 8 10 1 0
BITMAP
26
D9
C1
02
02
C1
06
24
D8
C1
ENDCHAR
STARTCHAR E13D
ENCODING 57661
SWIDTH 648 0
DWIDTH 9 0
BBX 8 10 1 0
BITMAP
26
59
C0
00
26
D9
02
06
D8
D8
ENDCHAR
STARTCHAR E141
ENCODING 57665
SWIDTH 648 0
DWIDTH 9 0
BBX 8 10 1 0
BITMAP
02
C1
C1
02
02
C1
06
04
D8
D0
ENDCHAR
STARTCHAR E142
ENCODING 57666
SWIDTH 1080 0
DWIDTH 15 0
BBX 13 10 1 0
BITMAP
0208
C110
C110
0208
0208
C110
0628
0660
D980
D180
ENDCHAR
STARTCHAR E147
ENCODING 57671
SWIDTH 288 0
DWIDTH 4 0
BBX 2 13 1 0
BITMAP
C0
C0
00
00
C0
C0
00
00
C0
00
00
C0
C0
ENDCHAR
STARTCHAR E148
ENCODING 57672
SWIDTH 648 0
DWIDTH 9 0
BBX 8 10 1 0
BITMAP
26
D9
01
02
26
D9
02
02
D9
D9
ENDCHAR
STARTCHAR E15F
ENCODING 57695
SWIDTH 1080 0
DWIDTH 15 0
BBX 13 10 1 0
BITMAP
2668
D990
0110
0208
2668
D990
0200
0200
D990
D990
ENDCHAR
STARTCHAR E160
ENCODING 57696
SWIDTH 648 0
DWIDTH 9 0
BBX 8 10 1 0
BITMAP
26
D9
C1
06
24
D8
06
02
D9
D9
ENDCHAR
STARTCHAR E161
ENCODING 57697
SWIDTH 648 0
DWIDTH 9 0
BBX 8 10 1 0
BITMAP
26
D9
C1
02
00
C0
00
02
D9
D9
ENDCHAR
STARTCHAR E166
ENCODING 57702
SWIDTH 648 0
DWIDTH 9 0
BBX 8 10 1 0
BITMAP
26
D9
C1
02
26
D9
00
00
D9
D9
ENDCHAR
STARTCHAR E177
ENCODING 57719
SWIDTH 648 0
DWIDTH 9 0
BBX 8 10 1 0
BITMAP
26
D9
C0
00
24
D8
00
00
C0
C0
ENDCHAR
STARTCHAR E178
ENCODING 57720
SWIDTH 648 0
DWIDTH 9 0
BBX 8 10 1 0
BITMAP
26
D9
C0
00
06
C9
02
02
D9
D9
ENDCHAR
STARTCHAR E17C
ENCODING 57724
SWIDTH 432 0
DWIDTH 6 0
BBX 5 9 1 1
BITMAP
18
18
00
00
18
00
00
D8
D8
ENDCHAR
STARTCHAR E17D
ENCODING 57725
SWIDTH 648 0
DWIDTH 9 0
BBX 8 10 1 0
BITMAP
02
C1
C8
04
26
D9
02
02
C1
C1
ENDCHAR
STARTCHAR E17F
ENCODING 57727
SWIDTH 576 0
DWIDTH 8 0
BBX 5 9 1 1
BITMAP
C0
C0
00
00
C0
00
00
D8
D8
ENDCHAR
STARTCHAR E184
ENCODING 57732
SWIDTH 864 0
DWIDTH 12 0
BBX 10 10 1 0
BITMAP
2640
D980
C880
0440
0440
C880
0440
0440
C880
C880
ENDCHAR
STARTCHAR E185
ENCODING 57733
SWIDTH 648 0
DWIDTH 9 0
BBX 8 10 1 0
BITMAP
26
D9
C1
02
02
C1
02
02
C1
C1
ENDCHAR
STARTCHAR E189
ENCODING 57737
SWIDTH 648 0
DWIDTH 9 0
BBX 8 13 1 -3
BITMAP
26
D9
C1
02
02
C1
02
02
C1
C1
02
06
08
ENDCHAR
STARTCHAR E18B
ENCODING 57739
SWIDTH 648 0
DWIDTH 9 0
BBX 8 10 1 0
BITMAP
26
D9
C1
02
02
C1
02
02
D9
D9
ENDCHAR
STARTCHAR E198
ENCODING 57752
SWIDTH 792 0
DWIDTH 11 0
BBX 10 12 1 0
BITMAP
0080
0040
2640
D980
C100
0200
0200
C100
0200
0200
D900
D900
ENDCHAR
STARTCHAR E1A2
ENCODING 57762
SWIDTH 1080 0
DWIDTH 15 0
BBX 13 10 1 0
BITMAP
2668
D990
C110
0208
0268
C190
0200
0200
D990
D990
ENDCHAR
STARTCHAR E1A3
ENCODING 57763
SWIDTH 648 0
DWIDTH 9 0
BBX 8 10 1 0
BITMAP
26
D9
C1
02
02
D9
26
00
C0
C0
ENDCHAR
STARTCHAR E1A4
ENCODING 57764
SWIDTH 648 0
DWIDTH 9 0
BBX 8 9 1 1
BITMAP
D9
D9
02
02
C1
02
26
D9
C0
ENDCHAR
STARTCHAR E1A5
ENCODING 57765
SWIDTH 648 0
DWIDTH 9 0
BBX 8 10 1 -1
BITMAP
26
D9
C1
02
02
C1
02
02
D9
D9
ENDCHAR
STARTCHAR E1A6
ENCODING 57766
SWIDTH 648 0
DWIDTH 9 0
BBX 8 10 1 0
BITMAP
26
D9
C1
02
02
D9
26
06
C1
C1
ENDCHAR
STARTCHAR E1AA
ENCODING 57770
SWIDTH 648 0
DWIDTH 9 0
BBX 8 10 1 0
BITMAP
26
D9
C0
00
26
D9
02
02
D9
D9
ENDCHAR
STARTCHAR E1B0
ENCODING 57776
SWIDTH 648 0
DWIDTH 9 0
BBX 8 10 1 0
BITMAP
02
C1
C1
02
02
C1
02
02
D9
D9
ENDCHAR
STARTCHAR E1BC
ENCODING 57788
SWIDTH 792 0
DWIDTH 11 0
BBX 10 12 1 0
BITMAP
0080
0040
0240
C180
C100
0200
0200
C100
0200
0200
D900
D900
ENDCHAR
STARTCHAR E1C7
ENCODING 57799
SWIDTH 864 0
DWIDTH 12 0
BBX 10 10 1 0
BITMAP
0440
C880
C880
0440
0440
C880
0440
0440
D980
D980
ENDCHAR
STARTCHAR E1CC
ENCODING 57804
SWIDTH 648 0
DWIDTH 9 0
BBX 8 10 1 0
BITMAP
02
C1
C1
02
26
D9
02
02
D9
D9
ENDCHAR
STARTCHAR E1D4
ENCODING 57812
SWIDTH 648 0
DWIDTH 9 0
BBX 8 10 1 0
BITMAP
26
D9
01
02
26
D9
00
00
D9
D9
ENDCHAR
STARTCHAR E1D8
ENCODING 57816
SWIDTH 648 0
DWIDTH 9 0
BBX 8 10 1 0
BITMAP
26
D9
01
02
26
D9
02
02
D9
58
ENDCHAR
STARTCHAR E1EF
ENCODING 57839
SWIDTH 1080 0
DWIDTH 15 0
BBX 13 10 1 0
BITMAP
2668
D990
0110
0208
2668
D990
0200
0200
D990
5990
ENDCHAR
STARTCHAR E1F0
ENCODING 57840
SWIDTH 648 0
DWIDTH 9 0
BBX 8 10 1 0
BITMAP
26
D9
C0
00
00
C0
00
00
D9
59
ENDCHAR
STARTCHAR E1F5
ENCODING 57845
SWIDTH 648 0
DWIDTH 9 0
BBX 8 10 1 0
BITMAP
26
D9
C1
02
26
D9
00
00
D9
59
ENDCHAR
STARTCHAR E206
ENCODING 57862
SWIDTH 648 0
DWIDTH 9 0
BBX 8 10 1 0
BITMAP
26
D9
C1
00
20
D8
00
00
C0
C0
ENDCHAR
STARTCHAR E207
ENCODING 57863
SWIDTH 648 0
DWIDTH 9 0
BBX 8 10 1 0
BITMAP
26
D9
C1
02
26
59
02
02
D9
D8
ENDCHAR
STARTCHAR E20B
ENCODING 57867
SWIDTH 576 0
DWIDTH 8 0
BBX 6 10 1 0
BITMAP
04
08
08
04
04
08
04
04
D8
58
ENDCHAR
STARTCHAR E20C
ENCODING 57868
SWIDTH 1080 0
DWIDTH 15 0
BBX 13 10 1 0
BITMAP
2668
D990
C110
0208
0208
C110
0208
0208
C110
C110
ENDCHAR
STARTCHAR E20D
ENCODING 57869
SWIDTH 648 0
DWIDTH 9 0
BBX 8 10 1 0
BITMAP
26
D9
C1
02
02
C1
02
02
C1
C1
ENDCHAR
STARTCHAR E211
ENCODING 57873
SWIDTH 648 0
DWIDTH 9 0
BBX 8 13 1 -3
BITMAP
26
D9
C1
02
02
C1
02
02
C1
C1
02
06
08
ENDCHAR
STARTCHAR E213
ENCODING 57875
SWIDTH 1080 0
DWIDTH 15 0
BBX 13 10 1 0
BITMAP
2668
D990
C110
0208
0268
C190
0200
0200
D990
5990
ENDCHAR
STARTCHAR E214
ENCODING 57876
SWIDTH 576 0
DWIDTH 8 0
BBX 6 10 1 0
BITMAP
24
D8
C0
00
00
C0
00
00
C0
C0
ENDCHAR
STARTCHAR E218
ENCODING 57880
SWIDTH 648 0
DWIDTH 9 0
BBX 8 10 1 0
BITMAP
26
D9
C0
00
26
59
02
02
D9
D8
ENDCHAR
STARTCHAR E21D
ENCODING 57885
SWIDTH 1080 0
DWIDTH 15 0
BBX 13 10 1 0
BITMAP
0208
C110
C110
0208
0208
C110
0208
0208
D990
5990
ENDCHAR
STARTCHAR E222
ENCODING 57890
SWIDTH 648 0
DWIDTH 9 0
BBX 8 10 1 0
BITMAP
02
C1
C1
02
26
59
02
02
D9
D8
ENDCHAR
STARTCHAR E22A
ENCODING 57898
SWIDTH 648 0
DWIDTH 9 0
BBX 8 10 1 0
BITMAP
20
D8
C8
06
02
D9
26
02
C1
C1
ENDCHAR
STARTCHAR E242
ENCODING 57922
SWIDTH 648 0
DWIDTH 9 0
BBX 8 10 1 0
BITMAP
26
D9
C1
06
26
D9
02
06
D8
D8
ENDCHAR
STARTCHAR E243
ENCODING 57923
SWIDTH 648 0
DWIDTH 9 0
BBX 8 10 1 0
BITMAP
26
D9
C0
00
00
C0
20
20
19
09
ENDCHAR
STARTCHAR E248
ENCODING 57928
SWIDTH 792 0
DWIDTH 11 0
BBX 9 10 1 0
BITMAP
2600
D980
C180
0000
0000
C180
0200
0600
D800
D800
ENDCHAR
STARTCHAR E249
ENCODING 57929
SWIDTH 792 0
DWIDTH 11 0
BBX 11 10 0 0
BITMAP
2CC0
1320
1020
2040
6840
9020
20C0
2080
1300
1200
ENDCHAR
STARTCHAR E24B
ENCODING 57931
SWIDTH 792 0
DWIDTH 11 0
BBX 11 10 0 0
BITMAP
2CC0
1320
1020
2040
6840
9020
20C0
2080
1300
1200
ENDCHAR
STARTCHAR E24C
ENCODING 57932
SWIDTH 648 0
DWIDTH 9 0
BBX 8 10 1 0
BITMAP
26
59
C0
00
24
D8
00
00
D9
D9
ENDCHAR
STARTCHAR E25D
ENCODING 57949
SWIDTH 792 0
DWIDTH 11 0
BBX 9 10 1 0
BITMAP
2600
D980
C000
0000
0600
C980
0000
2000
5980
1980
ENDCHAR
STARTCHAR E261
ENCODING 57953
SWIDTH 576 0
DWIDTH 8 0
BBX 6 10 1 0
BITMAP
24
D8
08
04
04
08
04
04
D8
D0
ENDCHAR
STARTCHAR E262
ENCODING 57954
SWIDTH 576 0
DWIDTH 8 0
BBX 5 9 1 1
BITMAP
C0
C0
00
00
C0
00
20
58
18
ENDCHAR
STARTCHAR E267
ENCODING 57959
SWIDTH 1080 0
DWIDTH 15 0
BBX 13 10 1 0
BITMAP
0668
1990
5190
2208
0208
C110
0208
0208
C110
C110
ENDCHAR
STARTCHAR E268
ENCODING 57960
SWIDTH 648 0
DWIDTH 9 0
BBX 8 10 1 0
BITMAP
06
19
51
22
02
C1
02
02
C1
C1
ENDCHAR
STARTCHAR E26C
ENCODING 57964
SWIDTH 648 0
DWIDTH 9 0
BBX 8 13 1 -3
BITMAP
06
19
51
22
02
C1
02
02
C1
C1
02
06
08
ENDCHAR
STARTCHAR E26E
ENCODING 57966
SWIDTH 792 0
DWIDTH 11 0
BBX 9 10 1 0
BITMAP
2600
5980
C180
0000
0000
C180
0000
0200
D900
D800
ENDCHAR
STARTCHAR E27F
ENCODING 57983
SWIDTH 648 0
DWIDTH 9 0
BBX 8 10 1 0
BITMAP
26
D9
C1
02
06
D8
24
00
C0
C0
ENDCHAR
STARTCHAR E280
ENCODING 57984
SWIDTH 648 0
DWIDTH 9 0
BBX 8 9 1 1
BITMAP
D9
D9
02
02
C1
06
24
D8
C0
ENDCHAR
STARTCHAR E281
ENCODING 57985
SWIDTH 792 0
DWIDTH 11 0
BBX 9 10 1 -1
BITMAP
2600
5980
C180
0000
0000
C180
0000
0200
D900
D800
ENDCHAR
STARTCHAR E282
ENCODING 57986
SWIDTH 648 0
DWIDTH 9 0
BBX 8 10 1 0
BITMAP
26
D9
C1
02
06
D8
24
06
C1
C1
ENDCHAR
STARTCHAR E286
ENCODING 57990
SWIDTH 648 0
DWIDTH 9 0
BBX 8 10 1 0
BITMAP
26
59
C0
00
26
D9
02
06
D8
D8
ENDCHAR
STARTCHAR E28A
ENCODING 57994
SWIDTH 648 0
DWIDTH 9 0
BBX 8 10 1 0
BITMAP
02
C1
C1
02
02
C1
22
22
19
09
ENDCHAR
STARTCHAR E28B
ENCODING 57995
SWIDTH 1080 0
DWIDTH 15 0
BBX 13 10 1 0
BITMAP
0208
C110
C110
0208
0208
C110
2208
2248
1990
0910
ENDCHAR
STARTCHAR E290
ENCODING 58000
SWIDTH 648 0
DWIDTH 9 0
BBX 8 10 1 0
BITMAP
02
C1
C1
02
22
59
26
02
01
01
ENDCHAR
STARTCHAR E298
ENCODING 58008
SWIDTH 648 0
DWIDTH 9 0
BBX 8 10 1 0
BITMAP
26
D9
08
04
20
50
20
00
D9
D9
ENDCHAR
STARTCHAR E29C
ENCODING 58012
SWIDTH 792 0
DWIDTH 11 0
BBX 9 10 1 0
BITMAP
2600
D900
C000
0000
0600
C980
0000
0200
D900
D800
ENDCHAR
STARTCHAR E29D
ENCODING 58013
SWIDTH 648 0
DWIDTH 9 0
BBX 8 10 1 0
BITMAP
26
D9
C1
02
02
D9
26
02
C1
C1
ENDCHAR
STARTCHAR E29E
ENCODING 58014
SWIDTH 648 0
DWIDTH 9 0
BBX 8 10 1 0
BITMAP
26
D9
C0
00
26
D9
02
02
D9
D8
ENDCHAR
STARTCHAR E29F
ENCODING 58015
SWIDTH 648 0
DWIDTH 9 0
BBX 8 10 1 0
BITMAP
26
D9
C1
06
24
D8
06
02
D9
D9
ENDCHAR
STARTCHAR E2A0
ENCODING 58016
SWIDTH 648 0
DWIDTH 9 0
BBX 8 10 1 0
BITMAP
26
D9
C0
00
00
C0
00
00
C0
C0
ENDCHAR
STARTCHAR E2A2
ENCODING 58018
SWIDTH 648 0
DWIDTH 9 0
BBX 8 10 1 0
BITMAP
26
D9
C0
00
24
D8
00
00
D9
D9
ENDCHAR
STARTCHAR E2A4
ENCODING 58020
SWIDTH 1080 0
DWIDTH 15 0
BBX 13 10 1 0
BITMAP
0208
C110
5110
2260
2668
D990
0208
0208
C110
C110
ENDCHAR
STARTCHAR E2A5
ENCODING 58021
SWIDTH 792 0
DWIDTH 11 0
BBX 9 10 1 0
BITMAP
2600
D980
C180
0200
0600
1900
0200
0000
D980
D980
ENDCHAR
STARTCHAR E2A6
ENCODING 58022
SWIDTH 648 0
DWIDTH 9 0
BBX 8 10 1 0
BITMAP
02
C1
C8
04
26
D9
02
02
C1
C1
ENDCHAR
STARTCHAR E2A8
ENCODING 58024
SWIDTH 1080 0
DWIDTH 15 0
BBX 13 10 1 0
BITMAP
2668
D990
C110
0208
0208
C110
0208
0208
C110
C110
ENDCHAR
STARTCHAR E2A9
ENCODING 58025
SWIDTH 792 0
DWIDTH 11 0
BBX 9 10 1 0
BITMAP
2600
D980
C180
0000
0000
C180
0000
0000
D980
D980
ENDCHAR
STARTCHAR E2AA
ENCODING 58026
SWIDTH 792 0
DWIDTH 11 0
BBX 9 10 1 0
BITMAP
2600
D980
C180
0000
0000
C180
0000
0000
C180
C180
ENDCHAR
STARTCHAR E2AB
ENCODING 58027
SWIDTH 648 0
DWIDTH 9 0
BBX 8 10 1 0
BITMAP
26
D9
C1
02
02
C1
02
26
D9
C0
ENDCHAR
STARTCHAR E2AC
ENCODING 58028
SWIDTH 792 0
DWIDTH 11 0
BBX 9 10 1 0
BITMAP
2600
D980
C180
0000
0000
C000
0000
0000
D980
D980
ENDCHAR
STARTCHAR E2AD
ENCODING 58029
SWIDTH 648 0
DWIDTH 9 0
BBX 8 10 1 0
BITMAP
02
C1
C1
02
26
D9
02
02
D9
D9
ENDCHAR
STARTCHAR E2AE
ENCODING 58030
SWIDTH 864 0
DWIDTH 12 0
BBX 10 13 1 -1
BITMAP
0800
0400
2640
D980
C880
0440
0440
C880
0440
0440
D980
D980
0400
ENDCHAR
STARTCHAR E2AF
ENCODING 58031
SWIDTH 792 0
DWIDTH 11 0
BBX 9 9 1 1
BITMAP
C180
C180
2200
2600
5900
2200
0000
C180
C180
ENDCHAR
STARTCHAR E2B0
ENCODING 58032
SWIDTH 648 0
DWIDTH 9 0
BBX 8 10 1 0
BITMAP
02
C1
C1
02
26
D9
02
02
01
01
ENDCHAR
STARTCHAR E2B1
ENCODING 58033
SWIDTH 792 0
DWIDTH 11 0
BBX 10 10 1 0
BITMAP
C180
C180
0000
0000
C180
0000
0000
D980
D980
0040
ENDCHAR
STARTCHAR E2B2
ENCODING 58034
SWIDTH 1080 0
DWIDTH 15 0
BBX 13 10 1 0
BITMAP
0208
C110
C110
0208
0208
C110
0208
0208
D990
D990
ENDCHAR
STARTCHAR E2B3
ENCODING 58035
SWIDTH 1080 0
DWIDTH 15 0
BBX 15 11 1 -1
BITMAP
0208
C110
C110
0208
0208
C110
0208
0208
D990
D992
0004
ENDCHAR
STARTCHAR E2B4
ENCODING 58036
SWIDTH 648 0
DWIDTH 9 0
BBX 8 9 1 1
BITMAP
C0
C0
00
26
D9
02
02
D9
D9
ENDCHAR
STARTCHAR E2B5
ENCODING 58037
SWIDTH 792 0
DWIDTH 11 0
BBX 9 10 1 0
BITMAP
2000
D000
5000
2000
2600
5980
2000
2000
5980
5980
ENDCHAR
STARTCHAR E2B6
ENCODING 58038
SWIDTH 936 0
DWIDTH 13 0
BBX 11 9 1 1
BITMAP
C060
C060
0000
2600
D960
0200
0200
D960
D960
ENDCHAR
STARTCHAR E2B7
ENCODING 58039
SWIDTH 792 0
DWIDTH 11 0
BBX 9 10 1 0
BITMAP
2600
D980
C180
0000
0600
1980
0000
0000
D980
D980
ENDCHAR
STARTCHAR E2B8
ENCODING 58040
SWIDTH 1080 0
DWIDTH 15 0
BBX 13 10 1 0
BITMAP
0668
C990
C810
0408
2408
D810
0408
0408
C990
C990
ENDCHAR
STARTCHAR E2B9
ENCODING 58041
SWIDTH 648 0
DWIDTH 9 0
BBX 8 10 1 0
BITMAP
26
D9
C1
02
02
C1
02
26
59
C1
ENDCHAR
STARTCHAR E2BE
ENCODING 58046
SWIDTH 648 0
DWIDTH 9 0
BBX 8 10 1 0
BITMAP
06
19
51
22
02
D9
26
02
C1
C1
ENDCHAR
STARTCHAR E2BF
ENCODING 58047
SWIDTH 648 0
DWIDTH 9 0
BBX 8 10 1 0
BITMAP
26
D9
C0
00
26
D9
02
06
D8
D8
ENDCHAR
STARTCHAR E2C0
ENCODING 58048
SWIDTH 648 0
DWIDTH 9 0
BBX 8 10 1 0
BITMAP
26
D9
C1
06
26
D9
02
06
D8
D8
ENDCHAR
STARTCHAR E2C1
ENCODING 58049
SWIDTH 648 0
DWIDTH 9 0
BBX 8 10 1 0
BITMAP
26
59
C0
00
00
C0
00
00
C0
C0
ENDCHAR
STARTCHAR E2C2
ENCODING 58050
SWIDTH 648 0
DWIDTH 9 0
BBX 8 10 1 0
BITMAP
26
D9
C0
00
24
D8
00
20
59
19
ENDCHAR
STARTCHAR E2C5
ENCODING 58053
SWIDTH 792 0
DWIDTH 11 0
BBX 9 10 1 0
BITMAP
2600
5980
5180
2000
2000
5180
2000
2000
D180
C180
ENDCHAR
STARTCHAR E2C6
ENCODING 58054
SWIDTH 1080 0
DWIDTH 15 0
BBX 13 10 1 0
BITMAP
2240
D980
C910
0628
0208
C110
0208
0208
C110
C110
ENDCHAR
STARTCHAR E2C7
ENCODING 58055
SWIDTH 792 0
DWIDTH 11 0
BBX 9 10 1 0
BITMAP
2600
D900
C180
0000
0000
C180
0000
2000
5980
1980
ENDCHAR
STARTCHAR E2C8
ENCODING 58056
SWIDTH 648 0
DWIDTH 9 0
BBX 8 10 1 0
BITMAP
26
D9
C1
02
02
C1
06
24
D8
C0
ENDCHAR
STARTCHAR E2C9
ENCODING 58057
SWIDTH 648 0
DWIDTH 9 0
BBX 8 10 1 0
BITMAP
06
19
50
20
00
C0
00
00
D9
D9
ENDCHAR
STARTCHAR E2CA
ENCODING 58058
SWIDTH 864 0
DWIDTH 12 0
BBX 10 13 1 -1
BITMAP
0800
0400
2600
D980
C880
0440
0440
C880
0440
2440
5980
1980
0400
ENDCHAR
STARTCHAR E2CB
ENCODING 58059
SWIDTH 648 0
DWIDTH 9 0
BBX 8 9 1 1
BITMAP
C0
C0
00
26
D9
02
06
D8
D8
ENDCHAR
STARTCHAR E2CC
ENCODING 58060
SWIDTH 792 0
DWIDTH 11 0
BBX 9 10 1 0
BITMAP
2000
D000
5000
2000
2600
5980
2000
2200
5900
5800
ENDCHAR
STARTCHAR E2CD
ENCODING 58061
SWIDTH 936 0
DWIDTH 13 0
BBX 11 9 1 1
BITMAP
C060
C060
0000
2600
D960
0200
0600
D860
D860
ENDCHAR
STARTCHAR E2CF
ENCODING 58063
SWIDTH 1080 0
DWIDTH 15 0
BBX 13 10 1 0
BITMAP
0660
C990
C810
0408
2408
D810
0408
0608
C190
C190
ENDCHAR
STARTCHAR E2D0
ENCODING 58064
SWIDTH 648 0
DWIDTH 9 0
BBX 8 10 1 0
BITMAP
26
D9
C1
02
02
C1
22
26
59
C1
ENDCHAR
STARTCHAR E2D1
ENCODING 58065
SWIDTH 648 0
DWIDTH 9 0
BBX 8 10 1 0
BITMAP
26
D9
01
02
26
D9
02
02
D9
D9
ENDCHAR
STARTCHAR E2D2
ENCODING 58066
SWIDTH 648 0
DWIDTH 9 0
BBX 8 10 1 0
BITMAP
26
D9
C0
00
26
D9
02
02
D9
D8
ENDCHAR
STARTCHAR E2D3
ENCODING 58067
SWIDTH 648 0
DWIDTH 9 0
BBX 8 10 1 0
BITMAP
26
D9
C1
06
24
D8
06
02
D9
D9
ENDCHAR
STARTCHAR E2D4
ENCODING 58068
SWIDTH 576 0
DWIDTH 8 0
BBX 6 10 1 0
BITMAP
24
D8
C0
00
00
C0
00
00
C0
C0
ENDCHAR
STARTCHAR E2D6
ENCODING 58070
SWIDTH 648 0
DWIDTH 9 0
BBX 8 10 1 0
BITMAP
26
D9
C1
02
26
D9
00
00
D9
D9
ENDCHAR
STARTCHAR E2D8
ENCODING 58072
SWIDTH 1080 0
DWIDTH 15 0
BBX 13 10 1 0
BITMAP
0208
C110
5110
2260
2668
D990
0208
0208
C110
C110
ENDCHAR
STARTCHAR E2D9
ENCODING 58073
SWIDTH 648 0
DWIDTH 9 0
BBX 8 10 1 0
BITMAP
26
D9
C1
06
04
18
06
02
D9
D9
ENDCHAR
STARTCHAR E2DA
ENCODING 58074
SWIDTH 648 0
DWIDTH 9 0
BBX 8 10 1 0
BITMAP
02
C1
C8
04
26
D9
02
02
C1
C1
ENDCHAR
STARTCHAR E2DC
ENCODING 58076
SWIDTH 864 0
DWIDTH 12 0
BBX 10 10 1 0
BITMAP
2640
D980
C880
0440
0440
C880
0440
0440
C880
C880
ENDCHAR
STARTCHAR E2DD
ENCODING 58077
SWIDTH 648 0
DWIDTH 9 0
BBX 8 10 1 0
BITMAP
26
D9
C1
02
02
C1
02
02
D9
D9
ENDCHAR
STARTCHAR E2DE
ENCODING 58078
SWIDTH 648 0
DWIDTH 9 0
BBX 8 10 1 0
BITMAP
26
D9
C1
02
02
C1
02
02
C1
C1
ENDCHAR
STARTCHAR E2DF
ENCODING 58079
SWIDTH 648 0
DWIDTH 9 0
BBX 8 10 1 0
BITMAP
26
D9
C1
02
02
D9
26
00
C0
C0
ENDCHAR
STARTCHAR E2E0
ENCODING 58080
SWIDTH 648 0
DWIDTH 9 0
BBX 8 10 1 0
BITMAP
26
D9
C1
02
00
C0
00
02
D9
D9
ENDCHAR
STARTCHAR E2E1
ENCODING 58081
SWIDTH 648 0
DWIDTH 9 0
BBX 8 10 1 0
BITMAP
02
C1
C1
02
26
D9
02
02
D9
D9
ENDCHAR
STARTCHAR E2E2
ENCODING 58082
SWIDTH 864 0
DWIDTH 12 0
BBX 10 13 1 -1
BITMAP
0800
0400
2640
D980
C880
0440
0440
C880
0440
0440
D980
D980
0400
ENDCHAR
STARTCHAR E2E3
ENCODING 58083
SWIDTH 648 0
DWIDTH 9 0
BBX 8 10 1 0
BITMAP
02
C1
C1
02
26
D9
02
02
01
01
ENDCHAR
STARTCHAR E2E4
ENCODING 58084
SWIDTH 720 0
DWIDTH 10 0
BBX 9 10 1 -1
BITMAP
0200
C100
C100
0200
0200
C100
0200
0200
D900
D980
ENDCHAR
STARTCHAR E2E5
ENCODING 58085
SWIDTH 864 0
DWIDTH 12 0
BBX 10 10 1 0
BITMAP
0440
C880
C880
0440
0440
C880
0440
0440
D980
D980
ENDCHAR
STARTCHAR E2E6
ENCODING 58086
SWIDTH 936 0
DWIDTH 13 0
BBX 12 11 1 -1
BITMAP
0440
C880
C880
0440
0440
C880
0440
0440
D980
D990
0020
ENDCHAR
STARTCHAR E2E7
ENCODING 58087
SWIDTH 648 0
DWIDTH 9 0
BBX 8 9 1 1
BITMAP
C0
C0
00
26
D9
02
02
D9
D9
ENDCHAR
STARTCHAR E2E8
ENCODING 58088
SWIDTH 792 0
DWIDTH 11 0
BBX 9 10 1 0
BITMAP
2000
D000
5000
2000
2600
5980
2000
2000
5980
5980
ENDCHAR
STARTCHAR E2E9
ENCODING 58089
SWIDTH 936 0
DWIDTH 13 0
BBX 11 9 1 1
BITMAP
C060
C060
0000
2600
D960
0200
0200
D960
D960
ENDCHAR
STARTCHAR E2EA
ENCODING 58090
SWIDTH 792 0
DWIDTH 11 0
BBX 9 10 1 0
BITMAP
2600
D980
C180
0000
0600
1980
0000
0000
D980
D980
ENDCHAR
STARTCHAR E2EB
ENCODING 58091
SWIDTH 936 0
DWIDTH 13 0
BBX 12 10 1 0
BITMAP
0660
C990
C810
0420
2420
D810
0420
0420
C990
C990
ENDCHAR
STARTCHAR E2EC
ENCODING 58092
SWIDTH 648 0
DWIDTH 9 0
BBX 8 10 1 0
BITMAP
26
D9
C1
02
02
D9
26
22
C1
C1
ENDCHAR
STARTCHAR E2F1
ENCODING 58097
SWIDTH 648 0
DWIDTH 9 0
BBX 8 10 1 0
BITMAP
20
D8
C8
06
02
D9
26
02
C1
C1
ENDCHAR
STARTCHAR E2F2
ENCODING 58098
SWIDTH 648 0
DWIDTH 9 0
BBX 8 10 1 0
BITMAP
26
D9
C0
00
24
D8
06
02
D9
D9
ENDCHAR
STARTCHAR E2F3
ENCODING 58099
SWIDTH 648 0
DWIDTH 9 0
BBX 8 10 1 0
BITMAP
26
D9
C1
06
26
D9
02
06
D8
D8
ENDCHAR
STARTCHAR E2F4
ENCODING 58100
SWIDTH 576 0
DWIDTH 8 0
BBX 6 10 1 0
BITMAP
24
58
C0
00
00
C0
00
00
C0
C0
ENDCHAR
STARTCHAR E2F5
ENCODING 58101
SWIDTH 648 0
DWIDTH 9 0
BBX 8 10 1 0
BITMAP
26
59
C0
00
24
D8
00
00
D9
D9
ENDCHAR
STARTCHAR E2F8
ENCODING 58104
SWIDTH 792 0
DWIDTH 11 0
BBX 9 10 1 0
BITMAP
2600
5980
5180
2000
2000
5180
2000
2000
D180
C180
ENDCHAR
STARTCHAR E2F9
ENCODING 58105
SWIDTH 1080 0
DWIDTH 15 0
BBX 13 10 1 0
BITMAP
0668
1990
5190
2208
0208
C110
0208
0208
C110
C110
ENDCHAR
STARTCHAR E2FA
ENCODING 58106
SWIDTH 792 0
DWIDTH 11 0
BBX 9 10 1 0
BITMAP
2600
5980
C180
0000
0000
C180
0000
0200
D900
D800
ENDCHAR
STARTCHAR E2FB
ENCODING 58107
SWIDTH 648 0
DWIDTH 9 0
BBX 8 10 1 0
BITMAP
26
D9
C1
02
06
D8
24
00
C0
C0
ENDCHAR
STARTCHAR E2FC
ENCODING 58108
SWIDTH 648 0
DWIDTH 9 0
BBX 8 10 1 0
BITMAP
26
D9
C0
00
00
C0
20
20
19
09
ENDCHAR
STARTCHAR E2FD
ENCODING 58109
SWIDTH 864 0
DWIDTH 12 0
BBX 10 13 1 -1
BITMAP
0800
0400
2640
5980
C880
0440
0440
C880
0440
0440
D980
D900
0400
ENDCHAR
STARTCHAR E2FE
ENCODING 58110
SWIDTH 648 0
DWIDTH 9 0
BBX 8 9 1 1
BITMAP
C0
C0
00
24
D8
06
02
D9
D9
ENDCHAR
STARTCHAR E2FF
ENCODING 58111
SWIDTH 792 0
DWIDTH 11 0
BBX 9 10 1 0
BITMAP
2000
D000
5000
2000
2600
5900
2200
2000
5980
5980
ENDCHAR
STARTCHAR E300
ENCODING 58112
SWIDTH 936 0
DWIDTH 13 0
BBX 11 9 1 1
BITMAP
C060
C060
0000
2400
D860
0600
0200
D960
D960
ENDCHAR
STARTCHAR E302
ENCODING 58114
SWIDTH 1080 0
DWIDTH 15 0
BBX 13 10 1 0
BITMAP
0268
C190
C810
0408
2408
D810
0408
0428
C990
C980
ENDCHAR
STARTCHAR E303
ENCODING 58115
SWIDTH 648 0
DWIDTH 9 0
BBX 8 10 1 0
BITMAP
26
D9
C1
02
22
59
26
22
C1
C1
ENDCHAR
STARTCHAR E304
ENCODING 58116
SWIDTH 648 0
DWIDTH 9 0
BBX 8 10 1 0
BITMAP
26
D9
C1
02
02
C1
02
02
D9
D8
ENDCHAR
STARTCHAR E305
ENCODING 58117
SWIDTH 648 0
DWIDTH 9 0
BBX 8 10 1 0
BITMAP
26
D9
C1
02
26
D8
00
00
D9
D9
ENDCHAR
STARTCHAR E306
ENCODING 58118
SWIDTH 648 0
DWIDTH 9 0
BBX 8 10 1 0
BITMAP
26
D9
C1
02
06
19
02
02
D9
D9
ENDCHAR
STARTCHAR E307
ENCODING 58119
SWIDTH 648 0
DWIDTH 9 0
BBX 8 10 1 0
BITMAP
02
C1
C1
02
02
D9
26
02
01
01
ENDCHAR
STARTCHAR E308
ENCODING 58120
SWIDTH 648 0
DWIDTH 9 0
BBX 8 10 1 0
BITMAP
26
D9
C0
00
26
D9
02
02
D9
D9
ENDCHAR
STARTCHAR E309
ENCODING 58121
SWIDTH 648 0
DWIDTH 9 0
BBX 8 10 1 0
BITMAP
26
D9
01
02
26
59
02
02
01
01
ENDCHAR
STARTCHAR E30A
ENCODING 58122
SWIDTH 648 0
DWIDTH 9 0
BBX 8 10 1 0
BITMAP
26
D9
C1
02
26
D9
02
02
D9
D9
ENDCHAR
STARTCHAR E30B
ENCODING 58123
SWIDTH 648 0
DWIDTH 9 0
BBX 8 10 1 0
BITMAP
26
D9
C1
02
26
D9
02
02
D9
D9
ENDCHAR
STARTCHAR E30C
ENCODING 58124
SWIDTH 648 0
DWIDTH 9 0
BBX 8 10 1 0
BITMAP
26
D9
C1
02
26
D8
00
00
D9
D9
ENDCHAR
STARTCHAR E30D
ENCODING 58125
SWIDTH 648 0
DWIDTH 9 0
BBX 8 10 1 0
BITMAP
26
D9
C1
02
06
19
02
02
D9
58
ENDCHAR
STARTCHAR E30E
ENCODING 58126
SWIDTH 648 0
DWIDTH 9 0
BBX 8 10 1 0
BITMAP
24
58
C8
04
04
D9
26
04
08
08
ENDCHAR
STARTCHAR E30F
ENCODING 58127
SWIDTH 648 0
DWIDTH 9 0
BBX 8 9 1 1
BITMAP
C0
D8
26
02
C1
02
02
D9
58
ENDCHAR
STARTCHAR E310
ENCODING 58128
SWIDTH 648 0
DWIDTH 9 0
BBX 8 10 1 0
BITMAP
26
D9
01
02
26
58
20
20
50
50
ENDCHAR
STARTCHAR E311
ENCODING 58129
SWIDTH 648 0
DWIDTH 9 0
BBX 8 10 1 0
BITMAP
26
D9
C1
02
26
D9
02
02
D9
58
ENDCHAR
STARTCHAR E312
ENCODING 58130
SWIDTH 648 0
DWIDTH 9 0
BBX 8 10 1 0
BITMAP
26
D9
C1
02
02
D9
26
02
01
01
ENDCHAR
STARTCHAR E313
ENCODING 58131
SWIDTH 648 0
DWIDTH 9 0
BBX 8 10 1 0
BITMAP
26
D9
C1
02
02
C1
02
02
D9
59
ENDCHAR
STARTCHAR E314
ENCODING 58132
SWIDTH 648 0
DWIDTH 9 0
BBX 8 10 1 0
BITMAP
26
D9
C1
06
04
18
20
20
D9
D9
ENDCHAR
STARTCHAR E315
ENCODING 58133
SWIDTH 648 0
DWIDTH 9 0
BBX 8 10 1 0
BITMAP
26
D9
C1
06
06
19
02
02
D9
D9
ENDCHAR
STARTCHAR E316
ENCODING 58134
SWIDTH 648 0
DWIDTH 9 0
BBX 8 10 1 0
BITMAP
26
59
C0
00
26
D9
02
02
D9
D9
ENDCHAR
STARTCHAR E317
ENCODING 58135
SWIDTH 648 0
DWIDTH 9 0
BBX 8 10 1 0
BITMAP
26
D9
C1
26
24
58
26
02
D9
D9
ENDCHAR
STARTCHAR E318
ENCODING 58136
SWIDTH 648 0
DWIDTH 9 0
BBX 8 10 1 0
BITMAP
26
D9
C1
02
26
D9
02
06
D8
D8
ENDCHAR
STARTCHAR E338
ENCODING 58168
SWIDTH 648 0
DWIDTH 9 0
BBX 8 10 1 0
BITMAP
26
D9
C1
02
06
19
00
00
18
18
ENDCHAR
STARTCHAR E339
ENCODING 58169
SWIDTH 648 0
DWIDTH 9 0
BBX 8 9 1 1
BITMAP
18
18
00
20
D8
00
02
D9
D9
ENDCHAR
STARTCHAR E33C
ENCODING 58172
SWIDTH 0 0
DWIDTH 0 0
BBX 7 4 -7 11
BITMAP
82
44
FE
10
ENDCHAR
STARTCHAR E33D
ENCODING 58173
SWIDTH 0 0
DWIDTH 0 0
BBX 7 8 -7 11
BITMAP
02
0C
28
10
82
44
FE
10
ENDCHAR
STARTCHAR E33E
ENCODING 58174
SWIDTH 0 0
DWIDTH 0 0
BBX 7 8 -7 11
BITMAP
40
80
10
20
82
44
FE
10
ENDCHAR
STARTCHAR E33F
ENCODING 58175
SWIDTH 0 0
DWIDTH 0 0
BBX 7 9 -7 11
BITMAP
68
6C
00
10
28
82
44
FE
10
ENDCHAR
STARTCHAR E340
ENCODING 58176
SWIDTH 0 0
DWIDTH 0 0
BBX 7 8 -7 11
BITMAP
64
92
92
4C
82
44
FE
10
ENDCHAR
STARTCHAR E341
ENCODING 58177
SWIDTH 0 0
DWIDTH 0 0
BBX 5 8 -5 11
BITMAP
10
08
40
A0
40
B0
D8
48
ENDCHAR
STARTCHAR E342
ENCODING 58178
SWIDTH 0 0
DWIDTH 0 0
BBX 7 8 -7 11
BITMAP
80
60
28
10
10
2C
36
12
ENDCHAR
STARTCHAR E343
ENCODING 58179
SWIDTH 0 0
DWIDTH 0 0
BBX 5 9 -5 11
BITMAP
40
48
10
30
40
40
B0
D8
48
ENDCHAR
STARTCHAR E344
ENCODING 58180
SWIDTH 0 0
DWIDTH 0 0
BBX 8 8 -7 11
BITMAP
13
68
4C
82
10
2C
36
12
ENDCHAR
ENDFONT
